<?xml version="1.0" standalone="no"?><!-- Generator: Gravit.io --><svg xmlns="http://www.w3.org/2000/svg" xmlns:xlink="http://www.w3.org/1999/xlink" style="isolation:isolate" viewBox="0 0 247.52 205.97" width="247.52" height="205.97"><defs><clipPath id="_clipPath_hmICmd9stwbQSLXx1ii2TzJwi3wT8Q7w"><rect width="247.52" height="205.97"/></clipPath></defs><g clip-path="url(#_clipPath_hmICmd9stwbQSLXx1ii2TzJwi3wT8Q7w)"><g><g><path d=" M 37.5 129.89 C 37.15 129.89 36.79 129.92 36.45 129.98 C 36.11 130.04 35.79 130.13 35.48 130.25 C 35.17 130.37 34.88 130.52 34.61 130.7 C 34.33 130.88 34.07 131.08 33.83 131.31 C 33.59 131.55 33.38 131.8 33.19 132.08 C 33 132.35 32.85 132.65 32.72 132.95 C 32.59 133.27 32.49 133.61 32.43 133.95 C 32.37 134.31 32.33 134.69 32.33 135.06 L 32.33 150.86 C 32.21 150.76 32.09 150.67 31.97 150.57 C 30.85 149.69 29.64 148.94 28.36 148.32 C 27.08 147.7 25.73 147.24 24.34 146.93 C 22.89 146.61 21.42 146.45 19.94 146.45 C 19 146.45 18.07 146.51 17.14 146.63 C 16.26 146.75 15.39 146.93 14.54 147.16 C 13.7 147.4 12.88 147.69 12.09 148.04 C 11.28 148.39 10.5 148.8 9.75 149.26 C 9.01 149.72 8.29 150.23 7.61 150.78 C 6.94 151.33 6.31 151.93 5.72 152.56 C 5.11 153.21 4.56 153.9 4.05 154.62 C 3.51 155.38 3.02 156.18 2.59 157 C 1.74 158.61 1.1 160.32 0.68 162.09 C 0.23 163.99 0 165.93 0 167.89 C 0 168.9 0.07 169.9 0.19 170.9 C 0.31 171.85 0.48 172.78 0.72 173.7 C 0.95 174.6 1.24 175.47 1.59 176.33 C 1.93 177.18 2.34 178.01 2.79 178.82 C 3.25 179.63 3.77 180.41 4.33 181.16 C 4.88 181.89 5.48 182.57 6.12 183.22 C 6.76 183.86 7.44 184.46 8.17 185.02 C 8.91 185.59 9.7 186.11 10.51 186.58 C 11.32 187.04 12.15 187.45 13.01 187.8 C 13.86 188.15 14.74 188.45 15.63 188.68 C 16.54 188.92 17.47 189.1 18.41 189.22 C 19.39 189.34 20.38 189.41 21.38 189.41 C 22.37 189.41 23.37 189.34 24.36 189.22 C 25.29 189.1 26.21 188.92 27.12 188.68 C 28.01 188.44 28.87 188.15 29.72 187.8 C 30.56 187.44 31.38 187.03 32.18 186.57 C 32.98 186.11 33.74 185.59 34.48 185.02 C 35.19 184.47 35.87 183.87 36.51 183.23 C 37.15 182.58 37.74 181.9 38.29 181.17 C 38.86 180.42 39.38 179.64 39.85 178.82 C 40.31 178.02 40.72 177.19 41.07 176.33 C 41.42 175.48 41.71 174.6 41.95 173.7 C 42.19 172.78 42.37 171.85 42.49 170.9 C 42.61 169.9 42.68 168.9 42.68 167.89 L 42.68 135.06 C 42.68 134.69 42.64 134.32 42.58 133.95 C 42.52 133.61 42.43 133.28 42.3 132.96 C 42.18 132.66 42.03 132.37 41.85 132.09 C 41.67 131.82 41.46 131.56 41.23 131.33 C 41 131.1 40.74 130.89 40.47 130.71 C 40.19 130.53 39.9 130.38 39.6 130.26 C 39.28 130.13 38.95 130.04 38.61 129.98 C 38.24 129.92 37.87 129.89 37.5 129.89 Z  M 21.38 179.93 C 20.34 179.93 19.3 179.79 18.3 179.52 C 17.36 179.26 16.47 178.88 15.64 178.38 C 14.8 177.87 14.04 177.26 13.36 176.55 C 12.66 175.81 12.06 174.98 11.57 174.08 C 11.08 173.18 10.71 172.23 10.46 171.23 C 10.2 170.14 10.06 169.02 10.06 167.89 C 10.06 166.76 10.2 165.64 10.47 164.55 C 10.71 163.57 11.08 162.62 11.56 161.74 C 12.05 160.85 12.66 160.03 13.35 159.3 C 14.03 158.59 14.8 157.98 15.64 157.47 C 16.47 156.97 17.36 156.59 18.3 156.33 C 19.3 156.06 20.34 155.93 21.38 155.93 C 22.42 155.93 23.45 156.06 24.46 156.33 C 25.39 156.59 26.29 156.97 27.12 157.47 C 27.95 157.98 28.71 158.59 29.39 159.3 C 30.08 160.03 30.67 160.85 31.14 161.73 C 31.62 162.61 31.99 163.56 32.22 164.54 C 32.49 165.63 32.62 166.76 32.62 167.89 C 32.62 169.02 32.49 170.15 32.22 171.25 C 31.99 172.24 31.62 173.19 31.14 174.09 C 30.66 174.99 30.07 175.81 29.38 176.55 C 28.71 177.26 27.95 177.87 27.12 178.38 C 26.29 178.88 25.39 179.26 24.46 179.52 C 23.45 179.79 22.42 179.93 21.38 179.93 Z " fill-rule="evenodd" fill="rgb(255,255,255)"/><path d=" M 62.58 149.96 C 62.55 149.87 62.52 149.77 62.49 149.67 C 62.28 149.07 61.95 148.52 61.5 148.07 C 61.27 147.84 61.01 147.64 60.74 147.48 C 60.45 147.3 60.15 147.16 59.83 147.05 C 59.52 146.94 59.19 146.86 58.87 146.82 C 58.49 146.76 58.11 146.73 57.74 146.73 C 57.02 146.73 56.3 146.85 55.62 147.09 C 55.02 147.31 54.47 147.65 54.01 148.11 C 53.56 148.56 53.21 149.11 53 149.72 C 52.76 150.4 52.64 151.11 52.64 151.83 L 52.64 184.02 C 52.64 184.76 52.76 185.49 53 186.19 C 53.21 186.8 53.57 187.35 54.03 187.8 C 54.49 188.24 55.04 188.57 55.64 188.77 C 56.31 189 57.02 189.12 57.74 189.12 C 58.47 189.12 59.21 188.99 59.91 188.75 C 60.52 188.54 61.07 188.19 61.52 187.72 C 61.96 187.26 62.29 186.72 62.49 186.12 C 62.72 185.44 62.84 184.73 62.84 184.02 L 62.84 162.99 C 62.84 162.44 62.9 161.88 63.02 161.34 C 63.12 160.89 63.27 160.45 63.48 160.03 C 63.68 159.62 63.94 159.23 64.24 158.88 C 64.58 158.47 64.98 158.11 65.4 157.79 C 65.82 157.47 66.26 157.2 66.73 156.97 C 67.25 156.71 67.79 156.49 68.34 156.32 C 68.99 156.12 69.65 155.97 70.32 155.88 C 71.16 155.77 72.01 155.71 72.86 155.71 C 73.4 155.71 73.95 155.74 74.49 155.8 C 75.42 155.9 76.34 156.03 77.26 156.19 C 77.53 156.24 77.79 156.28 78.06 156.32 C 78.24 156.34 78.43 156.36 78.62 156.36 C 79.12 156.36 79.62 156.28 80.1 156.13 C 80.55 155.99 80.98 155.77 81.35 155.48 C 81.73 155.19 82.05 154.82 82.31 154.41 C 82.58 153.97 82.79 153.49 82.93 152.99 C 82.98 152.82 83.02 152.65 83.04 152.48 C 83.06 152.27 83.07 152.05 83.07 151.83 C 83.07 151.39 82.99 150.94 82.85 150.52 C 82.7 150.09 82.49 149.69 82.21 149.33 C 81.96 148.99 81.67 148.69 81.34 148.43 C 80.96 148.13 80.55 147.86 80.11 147.63 C 79.28 147.18 78.38 146.86 77.44 146.68 C 76.12 146.43 74.78 146.3 73.43 146.3 C 72.14 146.3 70.86 146.44 69.6 146.7 C 68.38 146.96 67.18 147.36 66.04 147.88 C 64.91 148.39 63.83 149.03 62.82 149.77 C 62.74 149.84 62.66 149.9 62.58 149.96 Z " fill="rgb(255,255,255)"/><path d=" M 106.98 189.41 C 105.94 189.41 104.91 189.34 103.87 189.22 C 102.92 189.1 101.97 188.93 101.03 188.69 C 100.14 188.46 99.26 188.17 98.4 187.83 C 97.56 187.49 96.74 187.1 95.95 186.66 C 95.14 186.2 94.36 185.69 93.62 185.13 C 92.9 184.58 92.22 183.99 91.59 183.35 C 90.96 182.72 90.37 182.04 89.83 181.32 C 89.28 180.57 88.77 179.8 88.32 178.99 C 87.88 178.2 87.5 177.38 87.16 176.54 C 86.83 175.68 86.55 174.81 86.32 173.92 C 86.08 172.98 85.91 172.03 85.8 171.07 C 85.67 170.04 85.61 169 85.61 167.96 C 85.61 166.91 85.67 165.85 85.8 164.81 C 85.91 163.84 86.09 162.88 86.32 161.94 C 86.55 161.04 86.83 160.16 87.17 159.31 C 87.5 158.47 87.88 157.65 88.32 156.86 C 88.77 156.05 89.28 155.28 89.83 154.53 C 90.37 153.81 90.96 153.13 91.59 152.5 C 92.22 151.86 92.9 151.27 93.62 150.72 C 94.36 150.16 95.14 149.65 95.95 149.19 C 96.74 148.75 97.56 148.36 98.4 148.02 C 99.26 147.68 100.14 147.39 101.03 147.16 C 101.97 146.92 102.92 146.75 103.87 146.63 C 104.91 146.51 105.94 146.45 106.98 146.45 C 108.01 146.45 109.04 146.51 110.05 146.63 C 111 146.75 111.94 146.92 112.87 147.16 C 113.75 147.39 114.62 147.68 115.47 148.02 C 116.31 148.36 117.13 148.75 117.91 149.2 C 118.72 149.65 119.49 150.16 120.22 150.72 C 120.94 151.26 121.61 151.85 122.24 152.49 C 122.88 153.13 123.47 153.81 124.01 154.52 C 124.57 155.27 125.08 156.05 125.53 156.86 C 125.98 157.65 126.37 158.46 126.71 159.3 C 127.05 160.16 127.33 161.04 127.56 161.94 C 127.8 162.88 127.98 163.84 128.1 164.81 C 128.22 165.85 128.28 166.91 128.28 167.96 C 128.28 169 128.22 170.04 128.1 171.07 C 127.99 172.03 127.81 172.98 127.58 173.92 C 127.35 174.81 127.07 175.68 126.73 176.54 C 126.4 177.38 126.01 178.2 125.58 178.99 C 125.12 179.8 124.62 180.58 124.07 181.32 C 123.53 182.04 122.94 182.72 122.31 183.36 C 121.68 183.99 121.01 184.58 120.3 185.13 C 119.56 185.69 118.79 186.2 117.98 186.65 C 117.2 187.1 116.39 187.49 115.55 187.83 C 114.7 188.17 113.83 188.46 112.94 188.68 C 112 188.92 111.06 189.1 110.1 189.22 C 109.06 189.34 108.02 189.41 106.98 189.41 Z  M 106.98 179.93 C 105.92 179.93 104.85 179.79 103.82 179.52 C 102.88 179.27 101.99 178.9 101.16 178.41 C 100.33 177.91 99.57 177.31 98.9 176.61 C 98.21 175.89 97.62 175.07 97.14 174.2 C 96.66 173.31 96.3 172.37 96.07 171.39 C 95.8 170.27 95.67 169.12 95.67 167.96 C 95.67 166.81 95.8 165.65 96.07 164.53 C 96.3 163.54 96.67 162.58 97.15 161.68 C 97.62 160.79 98.22 159.97 98.91 159.24 C 99.57 158.54 100.33 157.94 101.16 157.44 C 101.99 156.95 102.88 156.58 103.82 156.33 C 104.85 156.06 105.92 155.93 106.98 155.93 C 108.05 155.93 109.12 156.06 110.15 156.33 C 111.08 156.58 111.98 156.95 112.81 157.44 C 113.63 157.93 114.39 158.54 115.05 159.24 C 115.73 159.97 116.32 160.79 116.78 161.67 C 117.25 162.57 117.6 163.53 117.83 164.52 C 118.1 165.65 118.23 166.8 118.23 167.96 C 118.23 169.12 118.1 170.27 117.83 171.4 C 117.6 172.38 117.25 173.32 116.78 174.21 C 116.32 175.08 115.74 175.89 115.06 176.61 C 114.39 177.31 113.64 177.92 112.81 178.41 C 111.98 178.9 111.08 179.27 110.15 179.52 C 109.12 179.79 108.05 179.93 106.98 179.93 Z " fill-rule="evenodd" fill="rgb(255,255,255)"/><path d=" M 157.53 146.45 C 158.52 146.45 159.51 146.51 160.5 146.63 C 161.43 146.75 162.36 146.93 163.27 147.17 C 164.17 147.4 165.04 147.7 165.89 148.05 C 166.75 148.4 167.59 148.81 168.39 149.27 C 169.21 149.74 169.99 150.26 170.74 150.83 C 171.46 151.39 172.15 151.99 172.79 152.63 C 173.43 153.28 174.02 153.96 174.57 154.69 C 175.14 155.44 175.65 156.22 176.11 157.03 C 176.57 157.84 176.97 158.67 177.32 159.52 C 177.66 160.38 177.95 161.25 178.18 162.15 C 178.42 163.07 178.6 164 178.72 164.95 C 178.84 165.95 178.9 166.95 178.9 167.96 C 178.9 169.92 178.67 171.86 178.22 173.76 C 177.8 175.53 177.16 177.24 176.31 178.85 C 175.88 179.67 175.39 180.47 174.86 181.23 C 174.35 181.95 173.79 182.64 173.19 183.29 C 172.6 183.92 171.96 184.52 171.29 185.07 C 170.61 185.62 169.9 186.13 169.15 186.59 C 168.4 187.05 167.62 187.46 166.82 187.81 C 166.02 188.16 165.2 188.45 164.37 188.69 C 163.51 188.93 162.64 189.1 161.76 189.22 C 160.84 189.34 159.9 189.41 158.97 189.41 C 157.49 189.41 156.01 189.24 154.57 188.92 C 153.18 188.61 151.83 188.15 150.54 187.53 C 149.26 186.91 148.05 186.16 146.94 185.28 C 146.81 185.18 146.69 185.09 146.57 184.99 L 146.57 200.79 C 146.57 201.16 146.54 201.53 146.48 201.9 C 146.42 202.24 146.32 202.57 146.2 202.89 C 146.08 203.19 145.92 203.48 145.74 203.76 C 145.56 204.03 145.36 204.29 145.12 204.52 C 144.89 204.75 144.64 204.96 144.36 205.14 C 144.09 205.32 143.8 205.47 143.5 205.59 C 143.18 205.72 142.84 205.81 142.5 205.87 C 142.14 205.93 141.77 205.97 141.4 205.97 C 141.04 205.97 140.69 205.93 140.34 205.87 C 140.01 205.81 139.69 205.72 139.37 205.6 C 139.07 205.48 138.78 205.33 138.5 205.15 C 138.23 204.97 137.97 204.77 137.73 204.54 C 137.49 204.3 137.27 204.05 137.09 203.77 C 136.9 203.5 136.74 203.2 136.62 202.9 C 136.49 202.58 136.39 202.24 136.33 201.9 C 136.26 201.54 136.23 201.16 136.23 200.79 L 136.23 167.96 C 136.23 166.95 136.29 165.95 136.42 164.95 C 136.53 164 136.71 163.07 136.95 162.15 C 137.19 161.25 137.48 160.37 137.83 159.52 C 138.19 158.66 138.59 157.83 139.06 157.03 C 139.52 156.21 140.04 155.43 140.61 154.68 C 141.16 153.95 141.76 153.27 142.4 152.62 C 143.03 151.98 143.71 151.38 144.43 150.83 C 145.16 150.26 145.93 149.74 146.73 149.28 C 147.52 148.82 148.34 148.41 149.19 148.05 C 150.03 147.7 150.9 147.41 151.78 147.17 C 152.69 146.93 153.61 146.75 154.55 146.63 C 155.54 146.51 156.53 146.45 157.53 146.45 Z  M 157.53 179.93 C 156.49 179.93 155.45 179.79 154.45 179.52 C 153.51 179.26 152.62 178.88 151.79 178.38 C 150.95 177.87 150.19 177.26 149.52 176.55 C 148.83 175.82 148.24 175.01 147.76 174.12 C 147.28 173.24 146.92 172.29 146.68 171.31 C 146.42 170.22 146.28 169.09 146.28 167.96 C 146.28 166.83 146.42 165.7 146.68 164.6 C 146.92 163.61 147.28 162.66 147.76 161.76 C 148.24 160.86 148.83 160.04 149.53 159.3 C 150.19 158.59 150.95 157.98 151.79 157.47 C 152.62 156.97 153.51 156.59 154.45 156.33 C 155.45 156.06 156.49 155.93 157.53 155.93 C 158.57 155.93 159.6 156.06 160.61 156.33 C 161.54 156.59 162.44 156.97 163.27 157.47 C 164.1 157.98 164.87 158.59 165.54 159.3 C 166.24 160.04 166.85 160.87 167.34 161.77 C 167.83 162.67 168.2 163.62 168.44 164.62 C 168.71 165.71 168.84 166.83 168.84 167.96 C 168.84 169.09 168.71 170.21 168.44 171.3 C 168.2 172.28 167.83 173.23 167.34 174.11 C 166.85 175 166.25 175.82 165.55 176.55 C 164.87 177.26 164.11 177.87 163.27 178.38 C 162.44 178.88 161.54 179.26 160.61 179.52 C 159.6 179.79 158.57 179.93 157.53 179.93 Z " fill-rule="evenodd" fill="rgb(255,255,255)"/><path d=" M 208.14 146.45 C 209.14 146.45 210.13 146.51 211.11 146.63 C 212.05 146.75 212.98 146.93 213.89 147.17 C 214.78 147.4 215.66 147.7 216.51 148.05 C 217.37 148.4 218.2 148.81 219.01 149.27 C 219.82 149.74 220.61 150.26 221.35 150.83 C 222.08 151.39 222.76 151.99 223.4 152.63 C 224.04 153.28 224.64 153.96 225.19 154.69 C 225.75 155.44 226.27 156.22 226.73 157.03 C 227.18 157.84 227.59 158.67 227.93 159.52 C 228.28 160.38 228.57 161.25 228.8 162.15 C 229.04 163.07 229.21 164 229.33 164.95 C 229.45 165.95 229.52 166.95 229.52 167.96 C 229.52 169.92 229.29 171.86 228.84 173.76 C 228.42 175.53 227.78 177.24 226.93 178.85 C 226.5 179.67 226.01 180.47 225.47 181.23 C 224.96 181.95 224.41 182.64 223.8 183.29 C 223.21 183.92 222.58 184.52 221.91 185.07 C 221.23 185.62 220.51 186.13 219.77 186.59 C 219.02 187.05 218.24 187.46 217.43 187.81 C 216.64 188.16 215.82 188.45 214.98 188.69 C 214.13 188.93 213.26 189.1 212.38 189.22 C 211.45 189.34 210.52 189.41 209.58 189.41 C 208.1 189.41 206.63 189.24 205.18 188.92 C 203.79 188.61 202.44 188.15 201.16 187.53 C 199.88 186.91 198.67 186.16 197.55 185.28 C 197.43 185.18 197.31 185.09 197.19 184.99 L 197.19 200.79 C 197.19 201.16 197.16 201.53 197.09 201.9 C 197.03 202.24 196.94 202.57 196.81 202.89 C 196.69 203.19 196.54 203.48 196.36 203.76 C 196.18 204.03 195.97 204.29 195.74 204.52 C 195.51 204.75 195.25 204.96 194.98 205.14 C 194.71 205.32 194.42 205.47 194.11 205.59 C 193.79 205.72 193.46 205.81 193.12 205.87 C 192.76 205.93 192.39 205.97 192.02 205.97 C 191.66 205.97 191.31 205.93 190.96 205.87 C 190.63 205.81 190.3 205.72 189.99 205.6 C 189.69 205.48 189.39 205.33 189.12 205.15 C 188.84 204.97 188.58 204.77 188.35 204.54 C 188.11 204.3 187.89 204.05 187.7 203.77 C 187.52 203.5 187.36 203.2 187.23 202.9 C 187.1 202.58 187.01 202.24 186.94 201.9 C 186.88 201.54 186.84 201.16 186.84 200.79 L 186.84 167.96 C 186.84 166.95 186.91 165.95 187.03 164.95 C 187.15 164 187.33 163.07 187.57 162.15 C 187.81 161.25 188.1 160.37 188.45 159.52 C 188.8 158.66 189.21 157.83 189.67 157.03 C 190.14 156.21 190.66 155.43 191.23 154.68 C 191.78 153.95 192.37 153.27 193.01 152.62 C 193.65 151.98 194.33 151.38 195.04 150.83 C 195.78 150.26 196.54 149.74 197.34 149.28 C 198.14 148.82 198.96 148.41 199.8 148.05 C 200.65 147.7 201.51 147.41 202.4 147.17 C 203.31 146.93 204.23 146.75 205.16 146.63 C 206.15 146.51 207.15 146.45 208.14 146.45 Z  M 197.3 164.6 C 197.53 163.61 197.9 162.66 198.38 161.76 C 198.86 160.86 199.45 160.04 200.14 159.3 C 200.81 158.59 201.57 157.98 202.4 157.47 C 203.23 156.97 204.13 156.59 205.06 156.33 C 206.07 156.06 207.1 155.93 208.14 155.93 C 209.18 155.93 210.22 156.06 211.22 156.33 C 212.16 156.59 213.05 156.97 213.88 157.47 C 214.72 157.98 215.48 158.59 216.16 159.3 C 216.86 160.04 217.46 160.87 217.95 161.77 C 218.44 162.67 218.81 163.62 219.06 164.62 C 219.32 165.71 219.46 166.83 219.46 167.96 C 219.46 169.09 219.32 170.21 219.05 171.3 C 218.81 172.28 218.44 173.23 217.96 174.11 C 217.47 175 216.86 175.82 216.17 176.55 C 215.49 177.26 214.72 177.87 213.88 178.38 C 213.05 178.88 212.16 179.26 211.22 179.52 C 210.22 179.79 209.18 179.93 208.14 179.93 C 207.1 179.93 206.07 179.79 205.06 179.52 C 204.13 179.26 203.23 178.88 202.4 178.38 C 201.57 177.87 200.81 177.26 200.13 176.55 C 199.44 175.82 198.85 175.01 198.38 174.12 C 197.9 173.24 197.53 172.29 197.3 171.31 C 197.03 170.22 196.9 169.09 196.9 167.96 C 196.9 166.83 197.03 165.7 197.3 164.6 Z " fill-rule="evenodd" fill="rgb(255,255,255)"/><path d=" M 241.05 190.27 C 240.62 190.27 240.2 190.23 239.78 190.15 C 239.38 190.07 238.98 189.95 238.6 189.79 C 238.22 189.63 237.85 189.43 237.51 189.19 C 237.14 188.95 236.81 188.66 236.5 188.35 C 236.18 188.04 235.9 187.7 235.66 187.34 C 235.42 187 235.22 186.63 235.06 186.25 C 234.9 185.87 234.78 185.47 234.7 185.07 C 234.62 184.65 234.58 184.23 234.58 183.8 C 234.58 183.36 234.62 182.93 234.7 182.5 C 234.78 182.08 234.9 181.68 235.06 181.29 C 235.22 180.9 235.42 180.53 235.66 180.19 C 235.91 179.82 236.19 179.49 236.5 179.18 C 236.81 178.87 237.14 178.58 237.51 178.34 C 237.85 178.1 238.22 177.9 238.6 177.74 C 238.98 177.58 239.38 177.46 239.78 177.38 C 240.2 177.3 240.62 177.26 241.05 177.26 C 241.47 177.26 241.9 177.3 242.31 177.38 C 242.72 177.46 243.11 177.58 243.49 177.74 C 243.88 177.9 244.24 178.1 244.59 178.34 C 244.95 178.58 245.29 178.87 245.6 179.18 C 245.91 179.49 246.19 179.82 246.44 180.19 C 246.67 180.53 246.87 180.9 247.03 181.29 C 247.19 181.68 247.31 182.08 247.39 182.5 C 247.47 182.93 247.52 183.36 247.52 183.8 C 247.52 184.23 247.48 184.65 247.4 185.07 C 247.32 185.47 247.2 185.86 247.05 186.24 C 246.89 186.62 246.7 186.99 246.47 187.33 C 246.23 187.69 245.95 188.03 245.65 188.34 C 245.35 188.65 245.01 188.93 244.66 189.18 C 244.31 189.42 243.95 189.62 243.56 189.78 C 243.17 189.94 242.77 190.07 242.36 190.14 C 241.93 190.23 241.49 190.27 241.05 190.27 Z " fill="rgb(255,255,255)"/></g><g><path d=" M 151.725 52.552 C 151.735 59.212 149.355 65.662 145.025 70.712 C 143.965 71.952 142.425 72.672 140.795 72.672 C 139.465 72.672 138.185 72.192 137.175 71.332 C 135.935 70.272 135.225 68.722 135.215 67.102 C 135.225 65.772 135.695 64.492 136.565 63.482 C 139.175 60.442 140.605 56.562 140.605 52.552 C 140.605 48.092 138.825 43.802 135.665 40.652 C 132.505 37.492 128.225 35.712 123.765 35.712 C 119.295 35.712 115.015 37.492 111.855 40.652 C 108.705 43.802 106.925 48.082 106.915 52.552 C 106.925 57.012 108.705 61.302 111.855 64.452 C 115.015 67.612 119.295 69.392 123.765 69.392 C 125.235 69.392 126.655 69.982 127.695 71.022 C 128.735 72.062 129.325 73.482 129.325 74.952 C 129.325 76.432 128.735 77.842 127.695 78.892 C 126.655 79.932 125.235 80.522 123.765 80.522 C 116.355 80.512 109.235 77.562 104.005 72.322 C 98.755 67.082 95.795 59.962 95.795 52.552 C 95.795 45.132 98.755 38.022 104.005 32.782 C 109.235 27.542 116.355 24.592 123.765 24.582 C 131.175 24.592 138.295 27.542 143.535 32.792 C 148.775 38.032 151.725 45.142 151.725 52.552 Z " fill="rgb(255,255,255)"/><path d=" M 71.39 52.46 C 71.37 38.55 76.88 25.18 86.71 15.33 C 96.55 5.53 109.88 0.02 123.76 0 C 137.64 0.02 150.97 5.53 160.81 15.33 C 170.64 25.18 176.15 38.55 176.13 52.46 C 175.97 62.47 173.32 72.29 168.41 81.02 C 164.13 88.65 158.74 95.59 152.4 101.61 C 147.52 106.34 142.23 110.62 136.59 114.4 C 134.96 115.53 133.28 116.59 131.56 117.58 C 129.81 118.82 127.8 119.67 125.68 120.07 C 125.06 120.2 124.43 120.27 123.79 120.27 C 122.91 120.27 122.03 120.14 121.17 119.9 L 119.93 119.57 L 118.62 118.83 C 118.61 118.83 118.61 118.83 118.61 118.83 C 114.23 116.34 110.02 113.56 106.01 110.5 C 102 107.44 98.18 104.14 94.58 100.61 C 88.39 94.67 83.1 87.87 78.88 80.4 C 74.13 71.85 71.55 62.25 71.39 52.46 Z  M 123.87 109.47 C 121.29 107.99 118.77 106.39 116.33 104.67 C 111.25 101.14 106.46 97.2 102.03 92.88 C 99.4 90.3 96.93 87.56 94.64 84.68 C 92.25 81.67 90.12 78.47 88.27 75.11 C 86.38 71.68 84.89 68.06 83.81 64.3 C 82.71 60.42 82.14 56.4 82.13 52.36 C 82.13 41.32 86.52 30.73 94.33 22.93 C 102.13 15.12 112.72 10.73 123.76 10.73 C 134.8 10.73 145.39 15.12 153.19 22.93 C 161 30.73 165.39 41.32 165.39 52.36 C 165.38 56.52 164.79 60.66 163.65 64.65 C 162.54 68.52 161 72.24 159.06 75.76 C 157.16 79.2 154.97 82.47 152.52 85.54 C 150.18 88.47 147.66 91.25 144.96 93.86 C 140.53 98.17 135.71 102.07 130.57 105.51 C 128.97 106.6 127.33 107.62 125.64 108.57 C 125.16 108.84 124.67 109.1 124.17 109.34 C 124.07 109.39 123.97 109.43 123.87 109.47 Z " fill-rule="evenodd" fill="rgb(255,255,255)"/></g></g></g></svg>