<?xml version="1.0" standalone="no"?><!-- Generator: Gravit.io --><svg xmlns="http://www.w3.org/2000/svg" xmlns:xlink="http://www.w3.org/1999/xlink" style="isolation:isolate" viewBox="0 0 244 244" width="244" height="244"><defs><clipPath id="_clipPath_qEUdHlf7pVKu3scFgNNTBXPpc7nCx9N6"><rect width="244" height="244"/></clipPath></defs><g clip-path="url(#_clipPath_qEUdHlf7pVKu3scFgNNTBXPpc7nCx9N6)"><rect width="244" height="244" style="fill:rgb(0,5,55)" fill-opacity="0"/><g><g><g><g><path d=" M 164.671 56.617 C 163.989 55.999 163.286 55.388 162.58 54.8 C 160.411 52.995 157.188 53.29 155.383 55.459 C 153.577 57.629 153.872 60.852 156.042 62.657 C 156.637 63.153 157.23 63.669 157.806 64.19 C 158.784 65.077 160.012 65.515 161.237 65.515 C 162.629 65.515 164.016 64.949 165.025 63.837 C 166.921 61.745 166.762 58.513 164.671 56.617 Z " fill="rgb(255,255,255)"/></g></g><g><g><path d=" M 107.677 83.341 L 104.551 80.216 C 102.556 78.22 99.319 78.22 97.323 80.216 C 95.327 82.212 95.328 85.449 97.324 87.444 L 100.449 90.57 C 101.448 91.568 102.755 92.066 104.064 92.066 C 105.372 92.066 106.68 91.567 107.678 90.569 C 109.673 88.573 109.673 85.337 107.677 83.341 Z " fill="rgb(255,255,255)"/></g></g><g><g><path d=" M 142.251 119.89 C 136.772 115.496 129.569 113.019 121.898 112.882 C 121.825 112.879 121.752 112.871 121.678 112.871 L 121.26 112.871 C 121.196 112.871 121.135 112.878 121.072 112.88 C 113.408 113.005 106.181 115.485 100.686 119.89 C 94.763 124.641 91.5 131.046 91.5 137.927 C 91.5 144.806 94.762 151.211 100.685 155.961 C 106.165 160.357 113.368 162.835 121.039 162.972 C 121.113 162.975 121.185 162.983 121.26 162.983 L 121.678 162.983 C 121.741 162.983 121.803 162.976 121.865 162.974 C 129.529 162.849 136.757 160.369 142.251 155.961 C 148.175 151.21 151.437 144.805 151.437 137.926 C 151.437 131.046 148.175 124.64 142.251 119.89 Z  M 121.485 152.761 C 110.586 152.684 101.721 146.032 101.721 137.927 C 101.721 129.822 110.586 123.17 121.452 123.094 C 132.351 123.17 141.216 129.822 141.216 137.927 C 141.216 146.032 132.352 152.684 121.485 152.761 Z " fill="rgb(255,255,255)"/></g></g><g><g><path d=" M 145.613 80.216 C 143.619 78.221 140.382 78.221 138.385 80.216 L 135.26 83.341 C 133.264 85.336 133.263 88.572 135.259 90.569 C 136.257 91.568 137.565 92.066 138.873 92.066 C 140.182 92.066 141.489 91.567 142.487 90.57 L 145.613 87.444 C 147.609 85.449 147.609 82.213 145.613 80.216 Z " fill="rgb(255,255,255)"/></g></g><g><g><path d=" M 124.16 132.816 L 118.777 132.816 C 115.955 132.816 113.666 135.105 113.666 137.927 C 113.666 140.749 115.954 143.038 118.777 143.038 L 124.16 143.038 C 126.983 143.038 129.271 140.749 129.271 137.927 C 129.271 135.105 126.983 132.816 124.16 132.816 Z " fill="rgb(255,255,255)"/></g></g><g><g><path d=" M 175.528 191.983 L 67.092 191.983 L 67.092 172.506 L 83.018 163.311 C 85.462 161.9 86.3 158.775 84.889 156.33 C 83.478 153.885 80.352 153.047 77.908 154.458 L 67.092 160.703 L 67.092 143.355 L 74.933 143.355 C 77.755 143.355 80.044 141.067 80.044 138.244 C 80.044 135.422 77.755 133.133 74.933 133.133 L 67.092 133.133 L 67.092 115.785 L 77.907 122.03 C 78.711 122.495 79.591 122.716 80.457 122.716 C 82.224 122.716 83.941 121.799 84.889 120.16 C 86.3 117.716 85.463 114.59 83.019 113.178 L 67.103 103.987 C 67.557 74.475 91.695 50.527 121.309 50.418 C 129.242 50.447 136.881 52.143 144.014 55.457 C 144.71 55.781 145.443 55.934 146.164 55.934 C 148.092 55.934 149.937 54.839 150.802 52.976 C 151.992 50.416 150.881 47.377 148.321 46.187 C 139.958 42.301 131.015 40.29 121.736 40.202 C 121.663 40.199 121.593 40.191 121.519 40.191 C 121.451 40.191 121.38 40.193 121.31 40.195 C 121.24 40.193 121.169 40.191 121.101 40.191 C 121.029 40.191 120.959 40.199 120.887 40.202 C 87.762 40.517 60.487 65.938 57.202 98.269 L 54.418 96.661 C 51.973 95.25 48.848 96.088 47.436 98.531 C 46.024 100.975 46.862 104.101 49.306 105.513 L 56.87 109.882 L 56.87 133.133 L 41.91 133.133 C 39.088 133.133 36.799 135.422 36.799 138.244 C 36.799 141.066 39.088 143.355 41.91 143.355 L 56.87 143.355 L 56.87 166.603 L 49.306 170.97 C 46.862 172.382 46.024 175.507 47.436 177.952 C 48.383 179.591 50.101 180.508 51.867 180.508 C 52.734 180.508 53.613 180.286 54.418 179.822 L 56.87 178.406 L 56.87 191.983 L 67.092 191.983 L 175.528 191.983 L 185.75 191.983 L 185.75 177.613 L 189.578 179.823 C 190.382 180.288 191.261 180.508 192.127 180.508 C 193.894 180.508 195.612 179.591 196.559 177.951 C 197.97 175.506 197.132 172.381 194.687 170.97 L 185.75 165.81 L 185.75 143.355 L 202.09 143.355 C 204.913 143.355 207.201 141.067 207.201 138.244 C 207.201 135.422 204.913 133.133 202.09 133.133 L 185.75 133.133 L 185.75 110.675 L 194.688 105.513 C 197.133 104.102 197.97 100.976 196.558 98.532 C 195.146 96.087 192.022 95.248 189.576 96.662 L 185.481 99.027 C 184.601 89.215 181.505 79.728 176.381 71.3 C 174.914 68.888 171.771 68.122 169.358 69.588 C 166.946 71.054 166.18 74.198 167.646 76.61 C 172.792 85.075 175.516 94.812 175.527 104.775 L 160.976 113.178 C 158.532 114.59 157.694 117.715 159.106 120.16 C 160.052 121.8 161.77 122.716 163.537 122.716 C 164.404 122.716 165.283 122.495 166.088 122.03 L 175.528 116.578 L 175.528 133.134 L 169.062 133.134 C 166.24 133.134 163.951 135.423 163.951 138.245 C 163.951 141.067 166.24 143.356 169.062 143.356 L 175.528 143.356 L 175.528 159.909 L 166.088 154.459 C 163.642 153.047 160.517 153.886 159.106 156.329 C 157.694 158.774 158.532 161.899 160.976 163.311 L 175.528 171.712 L 175.528 191.983 L 175.528 191.983 Z " fill="rgb(255,255,255)"/></g></g></g><path d=" M 67.97 214.809 L 67.97 220.809 L 55.97 220.809 L 55.97 214.809 L 55.97 185.979 L 55.97 179.979 L 67.97 179.979 L 67.97 185.979 L 67.97 214.809 Z " fill="rgb(255,255,255)"/><path d=" M 186.76 214.599 L 186.76 220.599 L 174.76 220.599 L 174.76 214.599 L 174.76 185.769 L 174.76 179.769 L 186.76 179.769 L 186.76 185.769 L 186.76 214.599 Z " fill="rgb(255,255,255)"/></g><path d=" M 0 122 C -0.01 105.69 3.25 89.55 9.59 74.53 C 15.74 60.04 24.62 46.87 35.75 35.75 C 46.87 24.62 60.04 15.74 74.53 9.6 C 89.55 3.25 105.69 -0.01 122 0 C 138.31 -0.01 154.45 3.25 169.47 9.6 C 183.96 15.74 197.13 24.62 208.25 35.75 C 219.38 46.87 228.26 60.04 234.4 74.53 C 240.75 89.55 244.01 105.69 244 122 C 244.01 138.31 240.75 154.45 234.4 169.47 C 228.26 183.96 219.38 197.13 208.25 208.25 C 197.13 219.38 183.96 228.26 169.47 234.4 C 154.45 240.75 138.31 244.01 122 244 C 105.69 244.01 89.55 240.75 74.53 234.4 C 60.04 228.26 46.87 219.38 35.75 208.25 C 24.62 197.13 15.74 183.96 9.6 169.47 C 3.25 154.45 -0.01 138.31 0 122 Z  M 10 122 C 9.99 107.03 12.98 92.21 18.81 78.42 C 24.44 65.12 32.6 53.03 42.82 42.82 C 53.03 32.6 65.12 24.44 78.42 18.81 C 92.21 12.98 107.03 9.99 122 10 C 136.97 9.99 151.79 12.98 165.58 18.81 C 178.88 24.44 190.97 32.6 201.18 42.82 C 211.4 53.03 219.56 65.12 225.19 78.42 C 231.02 92.21 234.01 107.03 234 122 C 234.01 136.97 231.02 151.79 225.19 165.58 C 219.56 178.88 211.4 190.97 201.18 201.18 C 190.97 211.4 178.88 219.56 165.58 225.19 C 151.79 231.02 136.97 234.01 122 234 C 107.03 234.01 92.21 231.02 78.42 225.19 C 65.12 219.56 53.03 211.4 42.82 201.18 C 32.6 190.97 24.44 178.88 18.81 165.58 C 12.98 151.79 9.99 136.97 10 122 Z " fill-rule="evenodd" fill="rgb(255,255,255)"/></g></svg>