<?xml version="1.0" standalone="no"?><!-- Generator: Gravit.io --><svg xmlns="http://www.w3.org/2000/svg" xmlns:xlink="http://www.w3.org/1999/xlink" style="isolation:isolate" viewBox="0 0 1000 1000" width="1000" height="1000"><defs><clipPath id="_clipPath_UY6fg5Arksi9r57SMtWCx3G3cbQbPz8h"><rect width="1000" height="1000"/></clipPath></defs><g clip-path="url(#_clipPath_UY6fg5Arksi9r57SMtWCx3G3cbQbPz8h)"><g><path d=" M 1000 500 C 1000 500 1000 500 1000 500 L 1000 500 L 1000 500 Z  M 1000 500 M 1000 500 C 1000.01 533.83 996.61 567.57 989.83 600.7 C 983.24 632.87 973.48 664.31 960.68 694.55 C 948.09 724.29 932.64 752.73 914.55 779.48 C 896.6 806.04 876.15 830.82 853.49 853.49 C 830.82 876.15 806.04 896.6 779.48 914.55 C 752.73 932.64 724.29 948.09 694.55 960.68 C 664.31 973.48 632.87 983.24 600.7 989.83 C 567.57 996.61 533.83 1000.01 500 1000 C 466.17 1000.01 432.43 996.61 399.3 989.83 C 367.13 983.24 335.69 973.48 305.45 960.68 C 275.71 948.09 247.27 932.64 220.52 914.55 C 193.96 896.6 169.18 876.15 146.51 853.49 C 123.85 830.82 103.4 806.04 85.45 779.48 C 67.36 752.73 51.91 724.29 39.32 694.55 C 26.52 664.31 16.76 632.87 10.17 600.7 C 3.39 567.57 -0.01 533.83 0 500 C -0.01 466.18 3.39 432.44 10.17 399.3 C 16.76 367.13 26.52 335.69 39.32 305.45 C 51.91 275.71 67.36 247.27 85.45 220.52 C 103.4 193.96 123.85 169.18 146.51 146.51 C 169.18 123.85 193.96 103.4 220.52 85.45 C 247.27 67.36 275.71 51.91 305.45 39.32 C 335.69 26.52 367.13 16.76 399.3 10.17 C 432.43 3.39 466.17 -0.01 500 0 C 533.83 -0.01 567.57 3.39 600.7 10.17 C 632.87 16.76 664.31 26.52 694.55 39.32 C 724.29 51.91 752.73 67.36 779.48 85.45 C 806.04 103.4 830.82 123.85 853.49 146.51 C 876.15 169.18 896.6 193.96 914.55 220.52 C 932.64 247.27 948.09 275.71 960.68 305.45 C 973.48 335.69 983.24 367.13 989.83 399.3 C 996.61 432.43 1000.01 466.17 1000 500 Z  M 980 500 C 980 500 980 500 980 500 L 980 500 L 980 500 C 980.01 532.48 976.74 564.88 970.24 596.7 C 963.92 627.57 954.54 657.73 942.26 686.76 C 930.17 715.3 915.34 742.6 897.98 768.28 C 880.75 793.79 861.11 817.58 839.34 839.34 C 817.58 861.11 793.79 880.75 768.28 897.98 C 742.6 915.34 715.3 930.17 686.76 942.26 C 657.73 954.54 627.57 963.92 596.7 970.24 C 564.87 976.74 532.48 980.01 500 980 C 467.52 980.01 435.13 976.74 403.3 970.24 C 372.43 963.92 342.27 954.54 313.24 942.26 C 284.7 930.17 257.4 915.34 231.72 897.98 C 206.21 880.75 182.42 861.11 160.66 839.34 C 138.89 817.58 119.25 793.79 102.02 768.28 C 84.66 742.6 69.83 715.3 57.74 686.76 C 45.46 657.73 36.08 627.57 29.76 596.7 C 23.26 564.87 19.99 532.48 20 500 C 19.99 467.52 23.26 435.12 29.76 403.3 C 36.08 372.43 45.46 342.27 57.74 313.24 C 69.83 284.7 84.66 257.4 102.02 231.72 C 119.25 206.21 138.89 182.42 160.66 160.66 C 182.42 138.89 206.21 119.25 231.72 102.02 C 257.4 84.66 284.7 69.83 313.24 57.74 C 342.27 45.46 372.43 36.08 403.3 29.76 C 435.13 23.26 467.52 19.99 500 20 C 532.48 19.99 564.87 23.26 596.7 29.76 C 627.57 36.08 657.73 45.46 686.76 57.74 C 715.3 69.83 742.6 84.66 768.28 102.02 C 793.79 119.25 817.58 138.89 839.34 160.66 C 861.11 182.42 880.75 206.21 897.98 231.72 C 915.34 257.4 930.17 284.7 942.26 313.24 C 954.54 342.27 963.92 372.43 970.24 403.3 C 976.74 435.12 980.01 467.52 980 500 Z " fill-rule="evenodd" fill="rgb(255,252,252)"/><g><g><g><circle vector-effect="non-scaling-stroke" cx="254.06143711601106" cy="744.4468247847728" r="10.060000000000002" fill="rgb(255,255,255)"/></g></g><g><g><circle vector-effect="non-scaling-stroke" cx="511.0064371160111" cy="489.30882478477264" r="10.04000000000002" fill="rgb(255,255,255)"/></g></g><g><g><path d=" M 642.48 362.033 C 634.409 353.961 623.678 349.517 612.264 349.517 C 600.85 349.517 590.118 353.963 582.048 362.033 C 565.387 378.695 565.387 405.805 582.048 422.466 C 590.38 430.797 601.32 434.961 612.264 434.961 C 623.205 434.961 634.15 430.795 642.48 422.466 C 659.141 405.804 659.141 378.694 642.48 362.033 Z  M 628.283 408.267 C 619.45 417.099 605.077 417.099 596.246 408.267 C 587.413 399.435 587.413 385.063 596.246 376.23 C 600.525 371.951 606.213 369.595 612.264 369.595 C 618.315 369.595 624.003 371.951 628.282 376.23 C 637.115 385.063 637.115 399.435 628.283 408.267 Z " fill="rgb(255,255,255)"/></g></g><g><g><path d=" M 369.41 655.451 C 364.446 652.979 358.42 655 355.948 659.963 L 343.99 683.978 C 338.79 694.419 328.332 701.401 316.694 702.197 L 302.786 703.149 C 300.435 703.306 298.889 702.135 298.174 701.42 C 297.459 700.705 296.285 699.156 296.445 696.807 L 297.397 682.9 C 298.194 671.263 305.176 660.804 315.616 655.604 L 339.63 643.646 C 344.594 641.174 346.614 635.147 344.142 630.184 C 341.671 625.221 335.644 623.2 330.68 625.672 L 306.666 637.63 C 289.874 645.992 278.646 662.812 277.364 681.528 L 276.412 695.435 C 275.898 702.942 278.654 710.298 283.974 715.618 C 288.872 720.516 295.497 723.242 302.377 723.242 C 302.968 723.242 303.563 723.222 304.157 723.181 L 318.065 722.229 C 336.781 720.948 353.601 709.721 361.963 692.927 L 373.921 668.913 C 376.393 663.949 374.373 657.923 369.41 655.451 Z " fill="rgb(255,255,255)"/></g></g><g><g><path d=" M 749.071 252.181 C 744.36 247.54 737.87 245.113 731.278 245.542 L 721.93 246.138 C 638.111 251.489 559.668 291.948 506.715 357.142 L 484.711 384.231 L 427.128 382.54 C 427.03 382.537 426.931 382.536 426.834 382.536 C 381.166 382.536 338.231 400.32 305.938 432.612 L 246.96 491.591 C 244.155 494.396 243.264 498.591 244.688 502.293 C 246.112 505.996 249.582 508.514 253.544 508.716 L 378.388 515.13 L 373.298 521.397 C 370.733 524.556 370.327 528.95 372.272 532.524 C 374.228 536.12 376.278 539.659 378.416 543.141 L 348.81 578.288 C 346.279 581.293 345.734 585.499 347.413 589.051 C 353.88 602.716 362.463 614.994 372.927 625.544 C 383.645 636.352 396.178 645.19 410.176 651.815 C 411.544 652.463 413.011 652.78 414.469 652.78 C 416.73 652.78 418.972 652.016 420.796 650.537 C 427.174 645.363 434.527 639.226 441.639 633.292 C 446.708 629.062 451.894 624.735 456.741 620.745 C 459.634 622.486 462.563 624.174 465.536 625.791 C 467.04 626.609 468.689 627.012 470.332 627.012 C 472.518 627.012 474.69 626.3 476.488 624.904 L 483.331 619.594 L 489.773 744.964 C 489.977 748.926 492.494 752.396 496.196 753.82 C 497.368 754.27 498.586 754.49 499.796 754.49 C 502.411 754.49 504.979 753.467 506.897 751.548 L 565.876 692.569 C 598.169 660.276 615.952 617.342 615.952 571.673 L 615.952 516.678 L 639.219 498.623 C 708.948 444.513 751.415 362.919 755.731 274.761 L 755.97 269.875 C 756.296 263.271 753.78 256.823 749.071 252.181 Z  M 277.124 489.823 L 320.136 446.811 C 348.601 418.346 386.439 402.654 426.689 402.615 L 468.774 403.851 L 394.064 495.831 L 277.124 489.823 Z  M 428.775 617.875 C 423.534 622.247 418.161 626.731 413.175 630.832 C 403.531 625.609 394.807 619.092 387.183 611.404 C 379.799 603.959 373.514 595.482 368.446 586.144 L 390.122 560.411 C 396.676 569.204 403.85 577.533 411.6 585.336 C 411.606 585.342 411.612 585.347 411.618 585.353 C 411.62 585.355 411.622 585.358 411.624 585.36 C 411.627 585.363 411.63 585.365 411.633 585.368 C 420.226 594.016 429.469 601.952 439.274 609.129 C 435.812 612.003 432.265 614.963 428.775 617.875 Z  M 595.876 571.673 C 595.876 611.978 580.181 649.87 551.68 678.371 L 508.668 721.383 L 502.666 604.591 L 595.875 532.261 L 595.875 571.673 L 595.876 571.673 Z  M 735.679 273.78 C 731.65 356.077 692.006 432.247 626.912 482.76 L 469.452 604.949 C 456.394 597.319 444.223 588.31 433.084 578.103 L 486.17 525.017 C 490.09 521.097 490.09 514.739 486.17 510.818 C 482.249 506.897 475.892 506.897 471.971 510.818 L 418.935 563.854 C 409.184 553.059 400.548 541.313 393.195 528.75 L 522.301 369.801 C 571.733 308.942 644.961 271.172 723.208 266.178 L 732.556 265.582 C 733.781 265.506 734.601 266.114 734.979 266.486 C 735.356 266.857 735.979 267.664 735.919 268.895 L 735.679 273.78 Z " fill="rgb(255,255,255)"/></g></g></g></g></g></svg>