<?xml version="1.0" standalone="no"?><!-- Generator: Gravit.io -->
<svg xmlns="http://www.w3.org/2000/svg" xmlns:xlink="http://www.w3.org/1999/xlink" style="isolation:isolate"
     viewBox="0 0 140.517 28.221" width="140.517" height="28.221">
    <defs>
        <clipPath id="_clipPath_RNeNacJl7YqHMzedzU1eHcxKSfDxPAC2">
            <rect width="140.517" height="28.221"/>
        </clipPath>
    </defs>
    <g clip-path="url(#_clipPath_RNeNacJl7YqHMzedzU1eHcxKSfDxPAC2)">
        <g>
            <g>
                <path d=" M 135.809 11.067 L 135.809 11.067 L 135.809 11.067 Q 135.809 10.116 136.46 9.415 L 136.46 9.415 L 136.46 9.415 Q 137.111 8.714 138.113 8.714 L 138.113 8.714 L 138.113 8.714 Q 139.064 8.714 139.79 9.415 L 139.79 9.415 L 139.79 9.415 Q 140.517 10.116 140.517 11.067 L 140.517 11.067 L 140.517 11.067 Q 140.517 12.069 139.79 12.745 L 139.79 12.745 L 139.79 12.745 Q 139.064 13.421 138.113 13.421 L 138.113 13.421 L 138.113 13.421 Q 137.111 13.421 136.46 12.745 L 136.46 12.745 L 136.46 12.745 Q 135.809 12.069 135.809 11.067 Z "
                      fill="rgb(255,0,119)"/>
                <path d=" M 136.466 28.221 L 135.465 27.269 L 137.418 23.614 L 136.166 23.614 L 136.166 19.107 L 140.122 19.107 L 140.122 24.365 L 136.466 28.221 Z "
                      fill="rgb(255,0,119)"/>
            </g>
            <g>
                <path d=" M 4.715 2.869 C 4.784 2.706 4.868 2.552 4.965 2.404 C 5.058 2.262 5.167 2.136 5.291 2.021 C 5.42 1.897 5.565 1.792 5.719 1.701 C 5.867 1.617 6.024 1.556 6.186 1.517 C 6.407 1.463 6.63 1.436 6.856 1.436 C 6.953 1.436 7.052 1.442 7.149 1.448 C 7.236 1.454 7.324 1.463 7.411 1.478 C 7.505 1.49 7.601 1.505 7.695 1.523 C 7.791 1.538 7.885 1.556 7.981 1.578 C 8.096 1.599 8.213 1.578 8.313 1.514 C 8.413 1.451 8.482 1.351 8.509 1.237 L 8.627 0.733 C 8.654 0.621 8.636 0.504 8.578 0.404 C 8.521 0.305 8.428 0.229 8.316 0.196 C 8.099 0.13 7.873 0.081 7.646 0.054 C 7.375 0.018 7.1 0 6.826 0 C 6.597 0 6.367 0.018 6.141 0.051 C 5.909 0.087 5.677 0.142 5.447 0.211 C 5.212 0.287 4.983 0.386 4.769 0.51 C 4.543 0.642 4.328 0.799 4.132 0.974 C 3.933 1.155 3.758 1.363 3.611 1.593 C 3.439 1.864 3.294 2.151 3.179 2.452 C 3.068 2.757 2.986 3.071 2.938 3.39 C 2.872 3.819 2.841 4.25 2.841 4.681 L 2.841 9.112 L 0 9.112 L 0 10.578 L 2.869 10.578 L 2.869 23.624 L 4.395 23.624 L 4.395 10.578 L 8.093 10.578 L 8.093 9.112 L 4.395 9.112 L 4.395 4.654 C 4.395 4.443 4.407 4.235 4.431 4.027 C 4.455 3.825 4.488 3.623 4.537 3.424 C 4.579 3.233 4.639 3.05 4.715 2.869 Z "
                      fill="rgb(255,255,255)"/>
                <path d=" M 13.967 11.139 C 13.964 11.004 13.961 10.868 13.955 10.732 C 13.952 10.584 13.946 10.436 13.943 10.289 C 13.937 10.138 13.931 9.984 13.922 9.833 C 13.913 9.728 13.907 9.622 13.895 9.519 C 13.883 9.408 13.832 9.302 13.75 9.23 C 13.666 9.155 13.557 9.112 13.446 9.112 L 12.794 9.112 C 12.667 9.112 12.544 9.167 12.459 9.26 C 12.375 9.354 12.333 9.483 12.345 9.61 C 12.354 9.703 12.363 9.8 12.369 9.897 C 12.381 10.041 12.393 10.189 12.402 10.334 C 12.411 10.479 12.42 10.623 12.426 10.768 C 12.435 10.928 12.441 11.088 12.447 11.248 C 12.45 11.411 12.456 11.574 12.462 11.736 C 12.465 11.896 12.471 12.053 12.474 12.21 C 12.48 12.367 12.483 12.524 12.486 12.678 C 12.489 12.783 12.489 12.889 12.489 12.994 L 12.489 23.624 L 14.046 23.624 L 14.046 16.131 C 14.046 15.778 14.067 15.422 14.112 15.073 C 14.157 14.702 14.224 14.337 14.314 13.978 C 14.402 13.622 14.516 13.278 14.658 12.94 C 14.788 12.629 14.948 12.328 15.129 12.041 C 15.307 11.764 15.512 11.504 15.744 11.272 C 15.973 11.046 16.224 10.844 16.498 10.672 C 16.754 10.509 17.038 10.388 17.334 10.31 C 17.705 10.213 18.091 10.165 18.474 10.165 L 18.534 10.165 L 18.637 10.165 C 18.652 10.165 18.667 10.165 18.679 10.168 C 18.703 10.171 18.727 10.174 18.748 10.18 C 18.884 10.213 19.029 10.183 19.137 10.099 C 19.246 10.011 19.312 9.881 19.312 9.743 L 19.312 9.179 C 19.312 9.076 19.276 8.974 19.21 8.892 C 19.143 8.811 19.05 8.756 18.947 8.735 C 18.887 8.723 18.824 8.714 18.76 8.705 C 18.706 8.699 18.649 8.696 18.591 8.696 L 18.474 8.696 L 18.326 8.696 C 18.057 8.696 17.789 8.717 17.524 8.759 C 17.261 8.802 17.002 8.865 16.751 8.946 C 16.492 9.031 16.239 9.136 15.997 9.26 C 15.738 9.393 15.491 9.544 15.252 9.713 C 15.023 9.878 14.812 10.062 14.622 10.271 C 14.411 10.494 14.224 10.738 14.058 10.994 C 14.028 11.043 13.998 11.091 13.967 11.139 L 13.967 11.139 Z "
                      fill="rgb(255,255,255)"/>
                <path d=" M 34.512 18.514 C 34.38 18.875 34.212 19.224 34.013 19.553 C 33.822 19.864 33.602 20.155 33.352 20.422 C 33.103 20.689 32.827 20.929 32.528 21.141 C 32.208 21.364 31.867 21.558 31.509 21.716 C 31.157 21.875 30.787 21.992 30.405 22.065 C 29.962 22.153 29.507 22.197 29.052 22.197 C 28.6 22.197 28.145 22.153 27.702 22.065 C 27.327 21.992 26.963 21.875 26.613 21.719 C 26.261 21.558 25.924 21.367 25.61 21.144 C 25.31 20.932 25.034 20.689 24.785 20.422 C 24.535 20.155 24.312 19.864 24.124 19.553 C 23.922 19.224 23.755 18.875 23.623 18.514 C 23.49 18.15 23.391 17.774 23.326 17.39 C 23.253 16.976 23.218 16.553 23.218 16.131 C 23.218 15.72 23.253 15.309 23.323 14.901 C 23.391 14.519 23.49 14.144 23.623 13.78 C 23.755 13.416 23.922 13.069 24.124 12.741 C 24.312 12.429 24.535 12.136 24.785 11.869 C 25.031 11.602 25.31 11.364 25.607 11.153 C 25.924 10.933 26.258 10.745 26.61 10.592 C 26.96 10.439 27.324 10.325 27.696 10.252 C 28.145 10.167 28.597 10.122 29.052 10.122 C 29.51 10.122 29.962 10.167 30.411 10.252 C 30.79 10.325 31.16 10.439 31.512 10.592 C 31.87 10.745 32.211 10.936 32.528 11.156 C 32.827 11.364 33.103 11.605 33.352 11.869 C 33.602 12.136 33.822 12.429 34.013 12.741 C 34.212 13.069 34.38 13.416 34.512 13.78 C 34.647 14.144 34.746 14.519 34.811 14.901 C 34.881 15.309 34.917 15.72 34.917 16.131 C 34.917 16.553 34.881 16.976 34.811 17.39 C 34.746 17.774 34.647 18.15 34.512 18.514 L 34.512 18.514 Z  M 35.897 13.134 C 35.721 12.688 35.501 12.256 35.237 11.851 C 34.987 11.467 34.699 11.109 34.374 10.783 C 34.048 10.457 33.693 10.169 33.308 9.917 C 32.903 9.653 32.475 9.427 32.026 9.248 C 31.577 9.066 31.11 8.928 30.631 8.84 C 30.112 8.746 29.584 8.696 29.052 8.696 C 28.524 8.696 27.996 8.746 27.473 8.843 C 27.001 8.928 26.54 9.066 26.094 9.248 C 25.651 9.43 25.225 9.653 24.826 9.917 C 24.444 10.167 24.086 10.457 23.763 10.783 C 23.438 11.109 23.147 11.467 22.898 11.851 C 22.636 12.256 22.416 12.688 22.24 13.134 C 22.061 13.586 21.932 14.05 21.847 14.525 C 21.753 15.056 21.706 15.593 21.706 16.131 C 21.706 16.671 21.753 17.208 21.847 17.739 C 21.929 18.217 22.061 18.687 22.237 19.142 C 22.413 19.594 22.636 20.028 22.898 20.439 C 23.147 20.83 23.435 21.191 23.76 21.522 C 24.083 21.851 24.441 22.145 24.826 22.403 C 25.225 22.667 25.651 22.893 26.094 23.075 C 26.54 23.257 27.001 23.392 27.473 23.48 C 27.996 23.577 28.524 23.624 29.052 23.624 C 29.584 23.624 30.112 23.577 30.631 23.48 C 31.11 23.392 31.577 23.257 32.026 23.075 C 32.475 22.893 32.903 22.667 33.308 22.4 C 33.693 22.145 34.051 21.851 34.377 21.522 C 34.699 21.191 34.99 20.83 35.24 20.439 C 35.501 20.028 35.721 19.594 35.897 19.142 C 36.073 18.687 36.205 18.217 36.29 17.739 C 36.384 17.208 36.431 16.671 36.431 16.131 C 36.431 15.593 36.384 15.056 36.29 14.525 C 36.205 14.05 36.073 13.586 35.897 13.134 L 35.897 13.134 Z "
                      fill-rule="evenodd" fill="rgb(255,255,255)"/>
                <path d=" M 42.155 11.384 C 42.203 11.317 42.251 11.248 42.303 11.185 C 42.499 10.922 42.719 10.675 42.951 10.443 C 43.174 10.222 43.413 10.02 43.666 9.833 C 43.922 9.649 44.191 9.483 44.468 9.342 C 44.749 9.2 45.035 9.082 45.334 8.986 C 45.63 8.889 45.934 8.817 46.242 8.771 C 46.556 8.723 46.869 8.696 47.189 8.696 C 47.684 8.696 48.178 8.75 48.664 8.853 C 49.05 8.934 49.421 9.07 49.765 9.254 C 50.109 9.435 50.426 9.655 50.715 9.912 C 50.99 10.153 51.231 10.427 51.436 10.729 C 51.638 11.028 51.81 11.341 51.952 11.673 C 52.103 12.02 52.217 12.379 52.302 12.747 C 52.386 13.106 52.447 13.471 52.489 13.839 C 52.531 14.207 52.552 14.578 52.552 14.949 L 52.552 23.624 L 50.996 23.624 L 50.996 15.006 C 50.996 14.747 50.984 14.487 50.956 14.228 C 50.926 13.923 50.881 13.619 50.827 13.317 C 50.772 13.03 50.691 12.753 50.588 12.482 C 50.489 12.228 50.368 11.987 50.224 11.758 C 50.082 11.537 49.913 11.329 49.726 11.145 C 49.521 10.943 49.291 10.765 49.047 10.614 C 48.821 10.47 48.571 10.364 48.308 10.301 C 47.943 10.21 47.566 10.165 47.189 10.165 C 46.851 10.165 46.513 10.201 46.185 10.271 C 45.868 10.34 45.557 10.446 45.262 10.581 C 44.966 10.717 44.689 10.886 44.429 11.085 C 44.164 11.29 43.919 11.522 43.702 11.779 C 43.482 12.038 43.289 12.322 43.123 12.617 C 42.927 12.97 42.764 13.341 42.631 13.721 C 42.499 14.101 42.399 14.49 42.339 14.889 C 42.263 15.377 42.227 15.872 42.227 16.37 L 42.227 23.624 L 40.671 23.624 L 40.671 12.994 C 40.671 12.889 40.671 12.783 40.668 12.678 C 40.665 12.524 40.662 12.367 40.656 12.21 C 40.65 12.053 40.647 11.896 40.641 11.736 C 40.638 11.574 40.632 11.411 40.626 11.248 C 40.623 11.088 40.617 10.928 40.607 10.768 C 40.601 10.623 40.592 10.479 40.583 10.334 C 40.574 10.189 40.562 10.041 40.55 9.897 C 40.544 9.8 40.535 9.703 40.526 9.61 C 40.511 9.483 40.553 9.354 40.641 9.26 C 40.725 9.167 40.849 9.112 40.975 9.112 L 41.627 9.112 C 41.739 9.112 41.847 9.155 41.929 9.23 C 42.013 9.302 42.064 9.408 42.076 9.519 C 42.085 9.622 42.095 9.728 42.101 9.833 C 42.11 9.984 42.119 10.138 42.122 10.289 C 42.128 10.436 42.131 10.584 42.137 10.732 C 42.143 10.907 42.146 11.079 42.152 11.251 C 42.155 11.296 42.155 11.338 42.155 11.384 L 42.155 11.384 Z "
                      fill="rgb(255,255,255)"/>
                <path d=" M 63.925 23.265 C 63.79 23.319 63.654 23.367 63.512 23.41 C 63.346 23.455 63.177 23.497 63.005 23.527 C 62.834 23.56 62.662 23.585 62.49 23.603 C 62.33 23.618 62.167 23.624 62.004 23.624 C 61.708 23.624 61.413 23.6 61.123 23.551 C 60.888 23.509 60.656 23.446 60.436 23.355 C 60.218 23.265 60.013 23.15 59.829 23.011 C 59.651 22.879 59.491 22.719 59.359 22.544 C 59.235 22.381 59.126 22.206 59.03 22.025 C 58.933 21.838 58.855 21.642 58.789 21.443 C 58.719 21.226 58.668 21.003 58.635 20.776 C 58.599 20.52 58.581 20.264 58.581 20.007 L 58.581 10.222 L 55.622 10.222 L 55.622 8.756 L 58.55 8.756 L 58.55 4.763 L 60.107 4.763 L 60.107 8.756 L 64.1 8.756 L 64.1 10.222 L 60.107 10.222 L 60.107 20.007 C 60.107 20.209 60.122 20.414 60.149 20.617 C 60.17 20.758 60.2 20.897 60.249 21.033 C 60.291 21.169 60.351 21.295 60.427 21.416 C 60.487 21.506 60.559 21.591 60.641 21.663 C 60.725 21.739 60.819 21.808 60.915 21.865 C 61.021 21.926 61.129 21.977 61.244 22.016 C 61.371 22.061 61.503 22.098 61.639 22.119 C 61.808 22.143 61.98 22.158 62.152 22.158 C 62.399 22.158 62.647 22.137 62.888 22.095 C 63.096 22.055 63.301 21.998 63.497 21.923 C 63.624 21.874 63.766 21.883 63.883 21.95 C 64.001 22.016 64.082 22.131 64.106 22.266 L 64.197 22.767 C 64.215 22.87 64.197 22.972 64.149 23.063 C 64.097 23.153 64.019 23.226 63.925 23.265 Z "
                      fill="rgb(255,255,255)"/>
                <path d=" M 79.693 21.158 L 79.693 21.149 C 79.693 21.149 79.693 21.149 79.693 21.149 C 79.693 20.891 79.581 20.64 79.39 20.467 L 78.996 20.102 C 78.822 19.934 78.593 19.843 78.351 19.843 C 78.351 19.843 78.351 19.843 78.351 19.843 L 78.34 19.843 C 78.098 19.843 77.866 19.94 77.692 20.111 C 77.504 20.29 77.298 20.446 77.077 20.582 C 76.845 20.726 76.598 20.843 76.342 20.938 C 76.071 21.032 75.792 21.105 75.509 21.155 C 75.236 21.202 74.956 21.226 74.677 21.226 C 74.312 21.226 73.947 21.191 73.591 21.117 C 73.294 21.055 73.005 20.961 72.732 20.832 C 72.446 20.702 72.173 20.546 71.92 20.361 C 71.684 20.184 71.464 19.987 71.264 19.77 C 71.066 19.546 70.89 19.305 70.737 19.049 C 70.572 18.772 70.431 18.481 70.322 18.178 C 70.207 17.869 70.122 17.551 70.066 17.227 C 70.007 16.892 69.978 16.551 69.978 16.209 C 69.978 15.868 70.007 15.527 70.066 15.191 C 70.122 14.871 70.207 14.553 70.322 14.244 C 70.431 13.941 70.569 13.644 70.734 13.364 C 70.89 13.105 71.069 12.858 71.272 12.632 C 71.47 12.408 71.69 12.205 71.929 12.026 C 72.182 11.837 72.452 11.676 72.738 11.54 C 73.011 11.411 73.3 11.314 73.597 11.255 C 73.95 11.178 74.312 11.14 74.677 11.14 C 74.944 11.14 75.215 11.167 75.477 11.222 C 75.742 11.275 76.001 11.358 76.248 11.464 C 76.498 11.57 76.736 11.702 76.96 11.858 C 77.174 12.005 77.377 12.176 77.563 12.364 C 77.731 12.544 77.96 12.647 78.204 12.658 C 78.207 12.658 78.21 12.658 78.21 12.658 L 78.222 12.658 L 78.234 12.658 L 78.24 12.658 C 78.472 12.658 78.696 12.573 78.869 12.42 C 78.869 12.42 78.869 12.42 78.869 12.42 L 79.319 12.023 C 79.319 12.023 79.319 12.023 79.319 12.023 C 79.514 11.852 79.631 11.608 79.64 11.346 C 79.64 11.346 79.64 11.343 79.64 11.34 L 79.64 11.334 L 79.64 11.323 L 79.64 11.317 L 79.64 11.308 C 79.64 11.308 79.64 11.308 79.64 11.308 C 79.64 11.064 79.546 10.831 79.375 10.658 C 79.084 10.355 78.76 10.084 78.41 9.851 C 78.048 9.607 77.66 9.401 77.254 9.239 C 76.851 9.075 76.433 8.951 76.006 8.872 C 75.568 8.783 75.121 8.742 74.677 8.742 C 74.168 8.742 73.662 8.792 73.161 8.892 C 72.696 8.983 72.243 9.128 71.811 9.313 C 71.381 9.501 70.972 9.728 70.587 9.993 C 70.21 10.254 69.86 10.552 69.54 10.881 C 69.219 11.211 68.93 11.576 68.686 11.967 C 68.427 12.376 68.207 12.808 68.033 13.261 C 67.857 13.712 67.724 14.179 67.639 14.656 C 67.548 15.168 67.501 15.689 67.501 16.209 C 67.501 16.73 67.548 17.251 67.639 17.763 C 67.724 18.243 67.857 18.71 68.033 19.163 C 68.21 19.614 68.427 20.046 68.686 20.455 C 68.933 20.84 69.222 21.202 69.542 21.529 C 69.863 21.856 70.216 22.15 70.593 22.406 C 70.981 22.665 71.39 22.888 71.82 23.068 C 72.252 23.253 72.702 23.391 73.167 23.477 C 73.664 23.574 74.171 23.624 74.677 23.624 C 75.097 23.624 75.518 23.589 75.933 23.521 C 76.354 23.453 76.768 23.35 77.172 23.218 C 77.592 23.077 77.998 22.885 78.375 22.653 C 78.754 22.42 79.105 22.144 79.419 21.829 C 79.596 21.65 79.693 21.411 79.693 21.161 C 79.693 21.161 79.693 21.161 79.693 21.158 L 79.693 21.158 Z "
                      fill="rgb(255,255,255)"/>
                <path d=" M 97.025 16.157 C 97.025 16.686 96.981 17.216 96.889 17.736 C 96.804 18.216 96.672 18.684 96.495 19.137 C 96.319 19.587 96.098 20.02 95.839 20.432 C 95.589 20.823 95.298 21.188 94.968 21.517 C 94.642 21.85 94.283 22.147 93.894 22.403 C 93.491 22.671 93.062 22.894 92.614 23.077 C 92.164 23.259 91.699 23.394 91.223 23.483 C 90.708 23.577 90.187 23.624 89.666 23.624 C 89.143 23.624 88.622 23.577 88.107 23.48 C 87.633 23.394 87.171 23.256 86.724 23.077 C 86.283 22.894 85.856 22.668 85.459 22.403 C 85.071 22.147 84.712 21.85 84.385 21.517 C 84.058 21.188 83.767 20.823 83.517 20.432 C 83.258 20.02 83.04 19.587 82.864 19.137 C 82.687 18.684 82.555 18.216 82.47 17.736 C 82.378 17.216 82.331 16.686 82.331 16.157 C 82.331 15.627 82.378 15.097 82.47 14.577 C 82.555 14.103 82.687 13.638 82.864 13.188 C 83.04 12.741 83.261 12.311 83.52 11.905 C 83.773 11.52 84.064 11.158 84.388 10.831 C 84.715 10.505 85.076 10.213 85.462 9.96 C 85.859 9.698 86.283 9.475 86.724 9.292 C 87.171 9.11 87.633 8.975 88.107 8.886 C 88.622 8.792 89.143 8.742 89.666 8.742 C 90.187 8.745 90.708 8.792 91.223 8.883 C 91.699 8.972 92.164 9.107 92.614 9.292 C 93.062 9.472 93.491 9.695 93.897 9.96 C 94.28 10.213 94.639 10.505 94.965 10.831 C 95.292 11.158 95.583 11.52 95.836 11.905 C 96.098 12.311 96.319 12.741 96.495 13.188 C 96.669 13.638 96.801 14.103 96.886 14.577 C 96.981 15.097 97.025 15.627 97.025 16.157 L 97.025 16.157 Z  M 91.717 20.829 C 91.426 20.958 91.123 21.052 90.814 21.114 C 90.434 21.188 90.052 21.226 89.666 21.226 C 89.281 21.226 88.898 21.188 88.519 21.114 C 88.213 21.052 87.916 20.958 87.63 20.829 C 87.336 20.699 87.057 20.537 86.792 20.352 C 86.548 20.179 86.318 19.978 86.109 19.758 C 85.906 19.537 85.724 19.296 85.568 19.04 C 85.4 18.766 85.262 18.475 85.15 18.175 C 85.038 17.869 84.953 17.554 84.9 17.23 C 84.838 16.877 84.809 16.515 84.809 16.157 C 84.809 15.806 84.838 15.456 84.897 15.112 C 84.953 14.788 85.038 14.474 85.15 14.165 C 85.262 13.865 85.4 13.573 85.568 13.3 C 85.724 13.044 85.906 12.802 86.109 12.582 C 86.315 12.364 86.542 12.167 86.786 11.993 C 87.051 11.811 87.33 11.655 87.621 11.526 C 87.907 11.402 88.207 11.308 88.513 11.249 C 88.892 11.175 89.278 11.14 89.666 11.14 C 90.052 11.14 90.437 11.175 90.817 11.249 C 91.129 11.308 91.435 11.402 91.726 11.528 C 92.023 11.658 92.305 11.814 92.57 11.996 C 92.814 12.17 93.041 12.367 93.247 12.585 C 93.453 12.802 93.635 13.044 93.791 13.3 C 93.956 13.573 94.097 13.865 94.206 14.165 C 94.318 14.474 94.403 14.788 94.462 15.112 C 94.521 15.456 94.55 15.806 94.55 16.157 C 94.547 16.515 94.518 16.877 94.459 17.23 C 94.403 17.554 94.321 17.869 94.206 18.175 C 94.094 18.475 93.956 18.766 93.791 19.04 C 93.632 19.296 93.45 19.537 93.247 19.758 C 93.041 19.978 92.814 20.176 92.567 20.346 C 92.3 20.535 92.014 20.696 91.717 20.829 L 91.717 20.829 Z "
                      fill-rule="evenodd" fill="rgb(255,255,255)"/>
                <path d=" M 111.596 10.513 L 111.596 1.237 L 114.074 1.237 L 114.074 23.25 L 111.596 23.25 L 111.596 21.856 C 111.558 21.891 111.517 21.926 111.479 21.959 C 111.232 22.176 110.97 22.373 110.69 22.547 C 110.411 22.723 110.117 22.882 109.814 23.018 C 109.519 23.15 109.216 23.262 108.904 23.353 C 108.593 23.444 108.275 23.512 107.951 23.556 C 107.622 23.6 107.286 23.624 106.954 23.624 C 106.454 23.624 105.953 23.574 105.462 23.477 C 105 23.383 104.547 23.238 104.112 23.053 C 103.682 22.865 103.27 22.635 102.888 22.367 C 102.514 22.106 102.17 21.806 101.858 21.476 C 101.546 21.144 101.269 20.782 101.034 20.396 C 100.781 19.99 100.569 19.561 100.401 19.116 C 100.231 18.669 100.101 18.207 100.019 17.736 C 99.928 17.233 99.884 16.721 99.884 16.209 C 99.884 15.7 99.928 15.189 100.016 14.685 C 100.098 14.212 100.225 13.744 100.399 13.294 C 100.569 12.844 100.781 12.414 101.028 12.002 C 101.266 11.611 101.543 11.246 101.855 10.908 C 102.164 10.569 102.511 10.266 102.888 10.001 C 103.273 9.734 103.682 9.501 104.112 9.313 C 104.547 9.128 105 8.983 105.462 8.889 C 105.953 8.792 106.454 8.742 106.954 8.742 C 107.286 8.742 107.622 8.766 107.951 8.81 C 108.275 8.854 108.593 8.922 108.904 9.016 C 109.216 9.104 109.519 9.216 109.814 9.348 C 110.117 9.484 110.411 9.643 110.69 9.819 C 110.97 9.996 111.235 10.193 111.482 10.41 C 111.52 10.446 111.558 10.478 111.596 10.513 L 111.596 10.513 Z  M 102.69 14.235 C 102.802 13.929 102.938 13.635 103.099 13.353 C 103.25 13.094 103.423 12.85 103.62 12.626 C 103.814 12.402 104.029 12.202 104.265 12.023 C 104.515 11.837 104.779 11.673 105.059 11.537 C 105.33 11.411 105.612 11.314 105.903 11.252 C 106.248 11.175 106.601 11.14 106.954 11.14 C 107.289 11.14 107.625 11.175 107.951 11.246 C 108.245 11.308 108.531 11.405 108.804 11.531 C 109.087 11.661 109.355 11.82 109.605 12.005 C 109.849 12.182 110.072 12.382 110.273 12.605 C 110.478 12.826 110.664 13.07 110.823 13.326 C 110.993 13.609 111.143 13.906 111.264 14.212 C 111.382 14.515 111.47 14.833 111.526 15.153 C 111.591 15.492 111.623 15.839 111.623 16.183 C 111.623 16.53 111.591 16.874 111.526 17.213 C 111.47 17.536 111.382 17.851 111.264 18.154 C 111.143 18.463 110.993 18.757 110.823 19.04 C 110.664 19.299 110.478 19.54 110.273 19.764 C 110.072 19.984 109.849 20.184 109.605 20.361 C 109.355 20.546 109.087 20.705 108.804 20.835 C 108.531 20.964 108.245 21.058 107.951 21.12 C 107.625 21.191 107.289 21.226 106.954 21.226 C 106.598 21.226 106.245 21.191 105.897 21.117 C 105.606 21.055 105.321 20.961 105.05 20.835 C 104.771 20.705 104.503 20.546 104.256 20.361 C 104.02 20.19 103.806 19.993 103.614 19.775 C 103.42 19.555 103.247 19.316 103.097 19.06 C 102.938 18.781 102.802 18.49 102.693 18.184 C 102.585 17.875 102.502 17.557 102.446 17.233 C 102.39 16.895 102.361 16.554 102.361 16.209 C 102.361 15.868 102.39 15.524 102.446 15.186 C 102.502 14.862 102.585 14.544 102.69 14.235 L 102.69 14.235 Z "
                      fill-rule="evenodd" fill="rgb(255,255,255)"/>
                <path d=" M 130.289 19.575 C 130.295 19.584 130.303 19.59 130.309 19.596 C 130.471 19.749 130.577 19.952 130.604 20.173 C 130.604 20.176 130.604 20.179 130.604 20.181 L 130.607 20.205 L 130.607 20.231 L 130.607 20.258 L 130.607 20.273 L 130.607 20.284 C 130.607 20.284 130.607 20.284 130.607 20.287 C 130.607 20.496 130.536 20.699 130.409 20.864 C 130.068 21.299 129.686 21.7 129.265 22.056 C 128.868 22.388 128.432 22.673 127.97 22.909 C 127.503 23.144 127.008 23.324 126.496 23.436 C 125.917 23.562 125.328 23.624 124.737 23.624 C 124.228 23.624 123.722 23.574 123.222 23.474 C 122.763 23.383 122.313 23.241 121.88 23.053 C 121.453 22.865 121.047 22.632 120.668 22.365 C 120.294 22.097 119.95 21.794 119.638 21.458 C 119.326 21.12 119.05 20.749 118.814 20.355 C 118.564 19.934 118.355 19.493 118.191 19.034 C 118.026 18.575 117.905 18.101 117.826 17.622 C 117.74 17.101 117.696 16.577 117.696 16.051 C 117.696 15.539 117.74 15.027 117.832 14.524 C 117.914 14.056 118.04 13.597 118.211 13.156 C 118.382 12.714 118.594 12.29 118.841 11.887 C 119.073 11.508 119.341 11.155 119.641 10.828 C 119.944 10.502 120.279 10.207 120.644 9.946 C 121.009 9.69 121.4 9.469 121.812 9.287 C 122.224 9.107 122.654 8.972 123.095 8.881 C 123.551 8.789 124.016 8.742 124.484 8.742 C 125.019 8.742 125.555 8.798 126.081 8.904 C 126.537 8.995 126.979 9.139 127.397 9.339 C 127.806 9.534 128.194 9.769 128.553 10.04 C 128.897 10.296 129.209 10.587 129.486 10.911 C 129.756 11.231 129.998 11.576 130.203 11.94 C 130.415 12.311 130.586 12.702 130.718 13.108 C 130.848 13.503 130.945 13.906 131.013 14.315 C 131.08 14.721 131.113 15.133 131.113 15.545 L 131.113 16.995 L 120.244 16.995 L 120.244 17.013 C 120.294 17.342 120.368 17.666 120.465 17.987 C 120.556 18.29 120.677 18.587 120.824 18.869 C 120.962 19.137 121.127 19.393 121.315 19.631 C 121.495 19.861 121.698 20.07 121.924 20.255 C 122.171 20.452 122.439 20.626 122.721 20.773 C 122.986 20.908 123.269 21.011 123.563 21.076 C 123.948 21.158 124.343 21.199 124.737 21.199 C 125.137 21.199 125.537 21.155 125.928 21.067 C 126.252 20.996 126.567 20.882 126.861 20.732 C 127.161 20.579 127.444 20.387 127.7 20.167 C 127.988 19.923 128.25 19.646 128.479 19.343 C 128.638 19.131 128.879 18.996 129.144 18.969 L 129.147 18.969 L 129.168 18.966 L 129.2 18.966 L 129.206 18.966 L 129.221 18.966 C 129.227 18.963 129.23 18.963 129.235 18.963 C 129.465 18.963 129.689 19.049 129.859 19.202 L 130.306 19.59 L 130.309 19.596 L 130.289 19.575 L 130.289 19.575 Z  M 120.338 14.6 C 120.371 14.471 120.406 14.344 120.444 14.221 C 120.53 13.97 120.63 13.726 120.753 13.491 C 120.888 13.229 121.044 12.982 121.221 12.744 C 121.389 12.523 121.577 12.317 121.786 12.132 C 122.024 11.926 122.28 11.743 122.551 11.584 C 122.792 11.443 123.054 11.337 123.325 11.272 C 123.692 11.184 124.069 11.14 124.446 11.14 C 124.763 11.14 125.081 11.17 125.393 11.228 C 125.655 11.275 125.911 11.352 126.158 11.455 C 126.402 11.555 126.638 11.684 126.858 11.834 C 127.067 11.973 127.255 12.137 127.426 12.32 C 127.603 12.508 127.761 12.711 127.897 12.929 C 128.05 13.176 128.182 13.435 128.288 13.706 C 128.394 13.976 128.473 14.259 128.529 14.544 L 128.538 14.6 L 120.338 14.6 L 120.338 14.6 Z "
                      fill-rule="evenodd" fill="rgb(255,255,255)"/>
            </g>
        </g>
    </g>
</svg>