<?xml version="1.0" standalone="no"?><!-- Generator: Gravit.io --><svg xmlns="http://www.w3.org/2000/svg" xmlns:xlink="http://www.w3.org/1999/xlink" style="isolation:isolate" viewBox="0 0 450.544 62.924" width="450.544" height="62.924"><defs><clipPath id="_clipPath_AnuphXOg7mDizmKL9b686UiI6wrfFMmb"><rect width="450.544" height="62.924"/></clipPath></defs><g clip-path="url(#_clipPath_AnuphXOg7mDizmKL9b686UiI6wrfFMmb)"><g><g><path d=" M 6.789 19.141 L 5.426 19.141 C 5.049 19.141 4.679 19.172 4.308 19.235 C 3.956 19.292 3.617 19.38 3.284 19.505 C 2.97 19.625 2.669 19.769 2.38 19.945 C 2.097 20.114 1.834 20.322 1.589 20.548 C 1.331 20.78 1.105 21.038 0.904 21.32 C 0.71 21.597 0.54 21.898 0.408 22.218 C 0.27 22.545 0.17 22.884 0.1 23.236 C 0.031 23.6 0 23.97 0 24.341 C 0 24.686 0.031 25.032 0.1 25.377 C 0.17 25.704 0.27 26.03 0.402 26.344 C 0.54 26.652 0.703 26.947 0.904 27.217 C 1.105 27.493 1.331 27.751 1.589 27.983 C 1.834 28.209 2.097 28.416 2.38 28.586 C 2.669 28.762 2.97 28.906 3.284 29.026 C 3.617 29.151 3.956 29.239 4.308 29.296 C 4.679 29.358 5.049 29.39 5.426 29.39 L 6.782 29.39 L 6.782 56.896 C 6.782 57.304 6.82 57.712 6.889 58.114 C 6.958 58.491 7.065 58.861 7.216 59.219 C 7.354 59.558 7.53 59.885 7.737 60.193 C 7.944 60.494 8.183 60.783 8.453 61.04 C 8.716 61.292 8.999 61.524 9.307 61.725 C 9.602 61.92 9.922 62.089 10.249 62.221 C 10.582 62.353 10.921 62.453 11.272 62.522 C 11.63 62.592 11.995 62.623 12.359 62.623 C 12.792 62.623 13.225 62.585 13.652 62.516 C 14.042 62.447 14.425 62.347 14.795 62.202 C 15.141 62.07 15.474 61.901 15.781 61.7 C 16.089 61.505 16.372 61.273 16.629 61.015 C 16.887 60.758 17.119 60.475 17.32 60.174 C 17.521 59.866 17.684 59.546 17.822 59.207 C 17.96 58.849 18.067 58.485 18.13 58.108 C 18.199 57.706 18.237 57.304 18.237 56.896 L 18.237 29.39 L 24.039 29.39 C 24.416 29.39 24.787 29.358 25.157 29.296 C 25.509 29.239 25.848 29.151 26.181 29.026 C 26.495 28.906 26.796 28.762 27.085 28.586 C 27.368 28.416 27.631 28.209 27.876 27.983 C 28.134 27.751 28.36 27.493 28.561 27.217 C 28.762 26.947 28.925 26.652 29.063 26.344 C 29.195 26.03 29.296 25.704 29.365 25.377 C 29.434 25.032 29.465 24.686 29.465 24.341 C 29.465 23.97 29.434 23.6 29.365 23.236 C 29.296 22.884 29.195 22.545 29.057 22.218 C 28.925 21.898 28.756 21.597 28.561 21.32 C 28.36 21.038 28.134 20.78 27.876 20.548 C 27.631 20.322 27.368 20.114 27.085 19.945 C 26.796 19.769 26.495 19.625 26.181 19.505 C 25.848 19.38 25.509 19.292 25.157 19.235 C 24.787 19.172 24.416 19.141 24.039 19.141 L 18.237 19.141 L 18.237 18.99 C 18.237 18.293 18.293 17.603 18.406 16.918 C 18.494 16.372 18.632 15.838 18.827 15.317 C 18.99 14.858 19.204 14.419 19.461 14.004 C 19.7 13.602 19.983 13.225 20.303 12.88 C 20.623 12.528 20.981 12.214 21.364 11.944 C 21.728 11.681 22.124 11.461 22.539 11.285 C 22.984 11.097 23.443 10.958 23.92 10.864 C 24.504 10.757 25.101 10.701 25.697 10.701 C 26.08 10.701 26.47 10.67 26.846 10.607 C 27.211 10.544 27.562 10.45 27.908 10.324 C 28.241 10.205 28.555 10.048 28.856 9.866 C 29.157 9.684 29.44 9.476 29.704 9.238 C 29.98 8.993 30.225 8.723 30.445 8.428 C 30.658 8.139 30.84 7.825 30.985 7.498 C 31.136 7.165 31.242 6.82 31.311 6.462 C 31.387 6.098 31.425 5.721 31.425 5.35 C 31.425 4.98 31.387 4.603 31.311 4.239 C 31.242 3.881 31.136 3.536 30.985 3.203 C 30.84 2.876 30.658 2.562 30.445 2.273 C 30.225 1.978 29.98 1.708 29.704 1.463 C 29.44 1.225 29.157 1.017 28.856 0.835 C 28.555 0.653 28.241 0.496 27.908 0.377 C 27.562 0.251 27.211 0.157 26.846 0.094 C 26.47 0.031 26.08 0 25.697 0 C 24.774 0 23.851 0.057 22.934 0.17 C 22.086 0.27 21.239 0.433 20.41 0.647 C 19.618 0.848 18.84 1.105 18.08 1.413 C 17.332 1.721 16.604 2.072 15.907 2.474 C 15.191 2.882 14.507 3.341 13.853 3.843 C 13.219 4.339 12.616 4.879 12.057 5.457 C 11.492 6.041 10.971 6.663 10.494 7.322 C 9.998 8.013 9.552 8.729 9.15 9.476 C 8.773 10.192 8.44 10.927 8.151 11.687 C 7.856 12.478 7.611 13.282 7.417 14.098 C 7.203 14.978 7.046 15.876 6.946 16.774 C 6.858 17.559 6.807 18.35 6.789 19.141 L 6.789 19.141 Z " fill="rgb(0,4,225)"/><path d=" M 49.721 20.805 C 49.602 20.504 49.457 20.209 49.282 19.932 C 49.1 19.637 48.886 19.373 48.641 19.129 C 48.384 18.871 48.101 18.645 47.787 18.457 C 47.473 18.262 47.134 18.105 46.782 17.986 C 46.431 17.866 46.073 17.778 45.708 17.722 C 45.307 17.665 44.892 17.634 44.484 17.634 C 44.063 17.634 43.642 17.665 43.228 17.734 C 42.851 17.797 42.481 17.898 42.116 18.036 C 41.79 18.161 41.476 18.325 41.174 18.513 C 40.879 18.702 40.609 18.921 40.364 19.166 C 40.119 19.411 39.899 19.681 39.711 19.976 C 39.523 20.278 39.359 20.592 39.234 20.918 C 39.096 21.283 38.995 21.653 38.932 22.03 C 38.863 22.444 38.832 22.865 38.832 23.286 L 38.832 56.971 C 38.832 57.411 38.87 57.844 38.939 58.277 C 39.001 58.667 39.102 59.043 39.246 59.408 C 39.372 59.741 39.535 60.055 39.724 60.356 C 39.918 60.645 40.138 60.915 40.389 61.153 C 40.641 61.392 40.911 61.606 41.206 61.788 C 41.507 61.97 41.827 62.127 42.154 62.246 C 42.506 62.372 42.876 62.466 43.247 62.529 C 43.655 62.592 44.069 62.623 44.484 62.623 C 44.923 62.623 45.357 62.585 45.79 62.516 C 46.179 62.453 46.556 62.353 46.92 62.208 C 47.253 62.083 47.567 61.92 47.869 61.731 C 48.158 61.537 48.428 61.317 48.666 61.066 C 48.905 60.814 49.118 60.544 49.3 60.249 C 49.483 59.948 49.64 59.627 49.759 59.301 C 49.885 58.949 49.979 58.579 50.042 58.208 C 50.104 57.8 50.136 57.386 50.136 56.971 L 50.136 34.966 C 50.136 34.407 50.199 33.849 50.318 33.302 C 50.418 32.856 50.569 32.417 50.776 32.002 C 50.977 31.594 51.228 31.211 51.524 30.866 C 51.875 30.457 52.271 30.087 52.698 29.767 C 53.119 29.453 53.565 29.176 54.036 28.938 C 54.563 28.674 55.109 28.454 55.675 28.278 C 56.334 28.077 57.012 27.927 57.697 27.832 C 58.563 27.713 59.436 27.657 60.309 27.657 C 60.868 27.657 61.427 27.688 61.98 27.745 C 62.947 27.851 63.908 27.983 64.862 28.153 C 65.145 28.209 65.427 28.253 65.716 28.291 C 65.923 28.322 66.131 28.335 66.338 28.335 C 66.897 28.335 67.449 28.253 67.983 28.09 C 68.492 27.933 68.969 27.682 69.396 27.355 C 69.823 27.022 70.187 26.614 70.47 26.149 C 70.765 25.66 70.997 25.132 71.154 24.586 C 71.217 24.391 71.255 24.196 71.274 23.995 C 71.299 23.763 71.311 23.524 71.311 23.286 C 71.311 22.783 71.23 22.281 71.067 21.81 C 70.897 21.326 70.658 20.874 70.351 20.472 C 70.068 20.102 69.748 19.769 69.384 19.48 C 68.969 19.154 68.523 18.859 68.052 18.607 C 67.826 18.488 67.588 18.375 67.349 18.268 C 67.091 18.161 66.834 18.061 66.57 17.973 C 65.785 17.703 64.975 17.515 64.152 17.402 C 63.079 17.257 61.998 17.182 60.912 17.182 C 59.543 17.182 58.174 17.326 56.836 17.609 C 55.53 17.885 54.262 18.306 53.05 18.859 C 51.875 19.392 50.757 20.045 49.721 20.805 L 49.721 20.805 Z " fill="rgb(0,4,225)"/><path d=" M 98.664 27.883 C 98.092 27.883 97.521 27.92 96.956 27.989 C 96.447 28.052 95.938 28.153 95.436 28.291 C 94.959 28.416 94.494 28.573 94.042 28.768 C 93.59 28.957 93.15 29.176 92.729 29.428 C 92.302 29.679 91.894 29.961 91.505 30.275 C 91.122 30.577 90.764 30.903 90.431 31.249 C 90.092 31.607 89.778 31.99 89.489 32.392 C 89.175 32.825 88.892 33.277 88.647 33.742 C 88.402 34.2 88.189 34.665 88.007 35.148 C 87.818 35.638 87.661 36.147 87.536 36.656 C 87.404 37.202 87.303 37.755 87.241 38.307 C 87.172 38.929 87.134 39.544 87.134 40.166 C 87.134 40.788 87.172 41.41 87.241 42.025 C 87.303 42.578 87.404 43.13 87.536 43.67 C 87.661 44.179 87.818 44.675 88.007 45.165 C 88.189 45.636 88.396 46.094 88.641 46.54 C 88.892 47.005 89.169 47.451 89.476 47.872 C 89.765 48.273 90.079 48.65 90.425 49.008 C 90.757 49.354 91.115 49.68 91.492 49.982 C 91.888 50.289 92.296 50.572 92.729 50.829 C 93.15 51.081 93.59 51.3 94.042 51.489 C 94.494 51.683 94.959 51.84 95.436 51.966 C 95.938 52.104 96.447 52.205 96.956 52.267 C 97.521 52.337 98.092 52.374 98.664 52.374 C 99.235 52.374 99.807 52.337 100.372 52.267 C 100.881 52.205 101.389 52.104 101.892 51.966 C 102.369 51.84 102.834 51.683 103.286 51.489 C 103.738 51.3 104.178 51.081 104.598 50.829 C 105.025 50.572 105.44 50.289 105.829 49.982 C 106.206 49.68 106.564 49.354 106.897 49.008 C 107.23 48.657 107.537 48.28 107.82 47.884 C 108.128 47.457 108.398 47.017 108.643 46.559 C 108.875 46.113 109.082 45.655 109.264 45.177 C 109.446 44.694 109.597 44.192 109.723 43.683 C 109.855 43.143 109.949 42.59 110.012 42.031 C 110.081 41.416 110.118 40.788 110.118 40.166 C 110.118 39.544 110.081 38.923 110.012 38.301 C 109.949 37.742 109.855 37.189 109.723 36.643 C 109.603 36.128 109.446 35.626 109.264 35.13 C 109.082 34.652 108.875 34.181 108.636 33.729 C 108.391 33.265 108.121 32.812 107.814 32.385 C 107.531 31.983 107.223 31.607 106.884 31.249 C 106.551 30.897 106.2 30.57 105.823 30.275 C 105.434 29.961 105.025 29.679 104.598 29.428 C 104.178 29.176 103.738 28.957 103.286 28.768 C 102.834 28.573 102.369 28.416 101.892 28.291 C 101.389 28.153 100.881 28.052 100.372 27.989 C 99.807 27.92 99.235 27.883 98.664 27.883 L 98.664 27.883 Z  M 98.664 17.332 C 99.75 17.332 100.837 17.395 101.917 17.527 C 102.922 17.653 103.92 17.841 104.9 18.092 C 105.842 18.337 106.765 18.639 107.669 19.003 C 108.555 19.361 109.421 19.782 110.256 20.253 C 111.111 20.736 111.927 21.276 112.712 21.873 C 113.465 22.444 114.188 23.072 114.86 23.751 C 115.532 24.429 116.16 25.151 116.731 25.911 C 117.328 26.702 117.868 27.531 118.351 28.391 C 118.828 29.227 119.243 30.093 119.595 30.991 C 119.959 31.902 120.267 32.831 120.505 33.786 C 120.763 34.784 120.951 35.802 121.07 36.825 C 121.202 37.937 121.271 39.048 121.271 40.166 C 121.271 41.265 121.209 42.364 121.077 43.457 C 120.957 44.474 120.769 45.485 120.518 46.477 C 120.279 47.419 119.984 48.349 119.626 49.259 C 119.274 50.151 118.86 51.018 118.395 51.859 C 117.918 52.72 117.384 53.549 116.794 54.334 C 116.222 55.1 115.601 55.822 114.929 56.5 C 114.263 57.178 113.547 57.806 112.787 58.384 C 112.009 58.974 111.186 59.521 110.332 60.004 C 109.503 60.475 108.636 60.896 107.744 61.254 C 106.846 61.612 105.917 61.92 104.975 62.158 C 103.983 62.416 102.978 62.604 101.961 62.723 C 100.868 62.855 99.763 62.924 98.664 62.924 C 97.565 62.924 96.466 62.862 95.373 62.73 C 94.356 62.604 93.345 62.416 92.353 62.165 C 91.404 61.92 90.475 61.618 89.571 61.254 C 88.673 60.896 87.8 60.482 86.964 60.004 C 86.104 59.521 85.275 58.981 84.484 58.384 C 83.724 57.806 83.002 57.178 82.33 56.5 C 81.658 55.822 81.03 55.1 80.458 54.334 C 79.868 53.542 79.334 52.72 78.857 51.859 C 78.392 51.018 77.978 50.151 77.626 49.259 C 77.268 48.349 76.973 47.419 76.734 46.477 C 76.483 45.485 76.295 44.474 76.176 43.457 C 76.044 42.364 75.981 41.265 75.981 40.166 C 75.981 39.048 76.044 37.937 76.176 36.825 C 76.295 35.802 76.483 34.784 76.734 33.786 C 76.973 32.837 77.275 31.902 77.632 30.991 C 77.984 30.106 78.392 29.239 78.857 28.398 C 79.334 27.537 79.868 26.715 80.458 25.923 C 81.03 25.157 81.658 24.435 82.33 23.757 C 83.002 23.079 83.724 22.451 84.484 21.873 C 85.275 21.276 86.104 20.736 86.964 20.253 C 87.8 19.775 88.673 19.361 89.571 19.003 C 90.475 18.639 91.404 18.337 92.353 18.092 C 93.345 17.841 94.356 17.653 95.373 17.527 C 96.466 17.395 97.565 17.332 98.664 17.332 L 98.664 17.332 Z " fill-rule="evenodd" fill="rgb(0,4,225)"/><path d=" M 142.469 20.68 C 142.369 20.472 142.256 20.278 142.13 20.083 C 141.929 19.782 141.697 19.499 141.44 19.242 C 141.182 18.984 140.899 18.752 140.598 18.551 C 140.29 18.35 139.97 18.187 139.631 18.048 C 139.273 17.91 138.909 17.803 138.532 17.741 C 138.13 17.672 137.728 17.634 137.32 17.634 C 136.931 17.634 136.541 17.665 136.158 17.734 C 135.788 17.803 135.43 17.904 135.084 18.042 C 134.745 18.174 134.425 18.337 134.117 18.538 C 133.809 18.733 133.527 18.965 133.263 19.216 C 132.993 19.474 132.754 19.763 132.547 20.064 C 132.34 20.372 132.164 20.699 132.026 21.038 C 131.875 21.396 131.768 21.766 131.699 22.143 C 131.63 22.545 131.593 22.953 131.593 23.361 L 131.593 56.971 C 131.593 57.36 131.63 57.756 131.699 58.139 C 131.768 58.51 131.875 58.874 132.013 59.219 C 132.152 59.558 132.327 59.885 132.528 60.193 C 132.736 60.5 132.974 60.789 133.238 61.053 C 133.502 61.317 133.791 61.555 134.098 61.763 C 134.406 61.964 134.733 62.139 135.072 62.278 C 135.417 62.416 135.781 62.522 136.152 62.592 C 136.535 62.661 136.931 62.698 137.32 62.698 C 137.728 62.698 138.136 62.661 138.538 62.592 C 138.915 62.522 139.285 62.416 139.643 62.265 C 139.983 62.127 140.309 61.951 140.617 61.744 C 140.918 61.537 141.207 61.298 141.465 61.028 C 141.716 60.764 141.948 60.482 142.143 60.174 C 142.344 59.866 142.507 59.546 142.639 59.207 C 142.777 58.861 142.878 58.503 142.947 58.133 C 143.016 57.75 143.047 57.36 143.047 56.971 L 143.047 35.72 C 143.047 35.356 143.072 34.991 143.123 34.634 C 143.173 34.307 143.242 33.98 143.342 33.666 C 143.436 33.352 143.55 33.051 143.688 32.756 C 143.838 32.454 144.008 32.153 144.196 31.87 C 144.579 31.305 145.038 30.79 145.559 30.344 C 146.162 29.829 146.828 29.396 147.537 29.044 C 148.253 28.693 149.007 28.423 149.792 28.253 C 150.671 28.059 151.569 27.958 152.467 27.958 C 153.296 27.958 154.125 28.027 154.947 28.165 C 155.607 28.278 156.254 28.454 156.882 28.686 C 157.441 28.9 157.981 29.17 158.489 29.49 C 158.985 29.798 159.444 30.162 159.871 30.564 C 160.279 30.954 160.637 31.387 160.945 31.858 C 161.284 32.379 161.567 32.938 161.786 33.522 C 162.038 34.188 162.226 34.878 162.339 35.582 C 162.49 36.524 162.565 37.478 162.565 38.433 L 162.565 56.971 C 162.565 57.36 162.603 57.756 162.672 58.139 C 162.741 58.51 162.848 58.874 162.986 59.219 C 163.124 59.558 163.3 59.885 163.501 60.193 C 163.708 60.5 163.947 60.789 164.21 61.053 C 164.474 61.317 164.763 61.555 165.071 61.763 C 165.378 61.964 165.705 62.139 166.044 62.278 C 166.389 62.416 166.754 62.522 167.124 62.592 C 167.507 62.661 167.903 62.698 168.292 62.698 C 168.682 62.698 169.077 62.661 169.46 62.592 C 169.831 62.522 170.195 62.416 170.54 62.278 C 170.88 62.139 171.206 61.964 171.514 61.763 C 171.822 61.555 172.11 61.317 172.374 61.053 C 172.638 60.789 172.877 60.5 173.084 60.193 C 173.285 59.885 173.461 59.558 173.599 59.219 C 173.737 58.874 173.844 58.51 173.913 58.139 C 173.982 57.756 174.019 57.36 174.019 56.971 L 174.019 38.433 C 174.019 37.296 173.957 36.16 173.837 35.035 C 173.724 34.031 173.555 33.038 173.322 32.059 C 173.109 31.167 172.839 30.294 172.519 29.44 C 172.217 28.636 171.865 27.858 171.457 27.104 C 171.024 26.3 170.54 25.528 170 24.793 C 169.485 24.096 168.927 23.437 168.317 22.821 C 167.721 22.218 167.08 21.659 166.396 21.151 C 165.705 20.629 164.976 20.165 164.223 19.75 C 163.482 19.342 162.709 18.984 161.924 18.683 C 161.127 18.369 160.311 18.111 159.475 17.904 C 158.609 17.69 157.73 17.527 156.838 17.427 C 155.889 17.314 154.929 17.257 153.974 17.257 C 152.618 17.257 151.261 17.383 149.93 17.628 C 148.649 17.866 147.399 18.231 146.193 18.708 C 144.988 19.191 143.832 19.788 142.739 20.498 C 142.652 20.56 142.557 20.617 142.469 20.68 L 142.469 20.68 Z " fill="rgb(0,4,225)"/><path d=" M 205.137 51.319 C 204.886 51.319 204.641 51.294 204.396 51.238 C 204.182 51.187 203.975 51.118 203.78 51.024 C 203.573 50.917 203.372 50.792 203.19 50.641 C 202.952 50.446 202.725 50.22 202.531 49.975 C 202.336 49.743 202.16 49.485 202.016 49.222 C 201.865 48.945 201.739 48.663 201.633 48.368 C 201.526 48.041 201.444 47.708 201.388 47.369 C 201.325 46.955 201.294 46.54 201.294 46.119 L 201.294 29.39 L 205.815 29.39 C 206.192 29.39 206.562 29.358 206.933 29.296 C 207.285 29.239 207.624 29.151 207.957 29.026 C 208.271 28.906 208.572 28.762 208.861 28.586 C 209.143 28.416 209.407 28.209 209.652 27.983 C 209.91 27.751 210.136 27.493 210.337 27.217 C 210.538 26.947 210.701 26.652 210.839 26.344 C 210.971 26.03 211.071 25.704 211.14 25.377 C 211.21 25.032 211.241 24.686 211.241 24.341 C 211.241 23.97 211.21 23.6 211.14 23.236 C 211.071 22.884 210.971 22.545 210.833 22.218 C 210.701 21.898 210.531 21.597 210.337 21.32 C 210.136 21.038 209.91 20.78 209.652 20.548 C 209.407 20.322 209.143 20.114 208.861 19.945 C 208.572 19.769 208.271 19.625 207.957 19.505 C 207.624 19.38 207.285 19.292 206.933 19.235 C 206.562 19.172 206.192 19.141 205.815 19.141 L 201.294 19.141 L 201.294 10.173 C 201.294 9.784 201.256 9.388 201.187 9.005 C 201.124 8.635 201.017 8.277 200.879 7.931 C 200.747 7.592 200.578 7.272 200.377 6.971 C 200.176 6.669 199.943 6.387 199.686 6.129 C 199.428 5.872 199.146 5.639 198.844 5.438 C 198.543 5.237 198.223 5.068 197.884 4.936 C 197.538 4.798 197.18 4.691 196.81 4.628 C 196.427 4.559 196.031 4.522 195.642 4.522 C 195.252 4.522 194.857 4.559 194.474 4.628 C 194.103 4.691 193.745 4.798 193.4 4.936 C 193.061 5.068 192.74 5.237 192.439 5.438 C 192.138 5.639 191.855 5.872 191.597 6.129 C 191.34 6.387 191.108 6.669 190.907 6.971 C 190.706 7.272 190.536 7.592 190.404 7.931 C 190.266 8.277 190.159 8.635 190.097 9.005 C 190.028 9.388 189.99 9.784 189.99 10.173 L 189.99 19.141 L 188.407 19.141 C 188.031 19.141 187.66 19.172 187.289 19.235 C 186.938 19.292 186.599 19.38 186.266 19.505 C 185.952 19.625 185.65 19.769 185.362 19.945 C 185.079 20.114 184.815 20.322 184.57 20.548 C 184.313 20.78 184.087 21.038 183.886 21.32 C 183.691 21.597 183.522 21.898 183.39 22.218 C 183.252 22.545 183.151 22.884 183.082 23.236 C 183.013 23.6 182.981 23.97 182.981 24.341 C 182.981 24.686 183.013 25.032 183.082 25.377 C 183.151 25.704 183.252 26.03 183.383 26.344 C 183.522 26.652 183.685 26.947 183.886 27.217 C 184.087 27.493 184.313 27.751 184.57 27.983 C 184.815 28.209 185.079 28.416 185.362 28.586 C 185.65 28.762 185.952 28.906 186.266 29.026 C 186.599 29.151 186.938 29.239 187.289 29.296 C 187.66 29.358 188.031 29.39 188.407 29.39 L 189.99 29.39 L 189.99 46.119 C 189.99 46.898 190.034 47.671 190.122 48.443 C 190.203 49.165 190.329 49.881 190.499 50.591 C 190.662 51.269 190.863 51.928 191.101 52.581 C 191.34 53.222 191.623 53.85 191.937 54.453 C 192.263 55.081 192.634 55.684 193.036 56.261 C 193.419 56.814 193.846 57.348 194.304 57.844 C 194.756 58.334 195.24 58.799 195.748 59.226 C 196.27 59.653 196.816 60.055 197.388 60.412 C 197.965 60.777 198.568 61.097 199.19 61.38 C 199.799 61.65 200.427 61.882 201.068 62.064 C 201.714 62.252 202.374 62.391 203.039 62.479 C 203.737 62.573 204.434 62.623 205.137 62.623 L 206.493 62.623 C 206.927 62.623 207.366 62.592 207.793 62.522 C 208.195 62.46 208.585 62.365 208.968 62.227 C 209.326 62.108 209.671 61.951 209.998 61.763 C 210.324 61.581 210.632 61.361 210.914 61.122 C 211.216 60.865 211.492 60.576 211.737 60.262 C 211.976 59.954 212.177 59.621 212.34 59.27 C 212.497 58.918 212.623 58.547 212.698 58.164 C 212.78 57.775 212.823 57.373 212.823 56.971 C 212.823 56.588 212.792 56.199 212.729 55.816 C 212.673 55.458 212.579 55.106 212.453 54.767 C 212.34 54.44 212.189 54.126 212.013 53.831 C 211.838 53.536 211.63 53.26 211.404 53.002 C 211.166 52.738 210.902 52.494 210.613 52.28 C 210.337 52.066 210.035 51.891 209.715 51.746 C 209.407 51.602 209.074 51.495 208.742 51.426 C 208.396 51.357 208.051 51.319 207.699 51.319 L 205.137 51.319 L 205.137 51.319 Z " fill="rgb(0,4,225)"/><path d=" M 241.306 17.332 C 240.232 17.332 239.158 17.395 238.097 17.527 C 237.099 17.653 236.113 17.841 235.139 18.092 C 234.21 18.331 233.293 18.639 232.395 19.003 C 231.51 19.361 230.649 19.782 229.82 20.259 C 228.972 20.742 228.162 21.283 227.39 21.879 C 226.636 22.457 225.927 23.091 225.261 23.769 C 224.595 24.448 223.98 25.176 223.415 25.948 C 222.831 26.746 222.303 27.581 221.826 28.454 C 221.368 29.296 220.966 30.169 220.62 31.067 C 220.269 31.977 219.973 32.913 219.741 33.861 C 219.49 34.853 219.308 35.864 219.188 36.875 C 219.063 37.968 219 39.067 219 40.166 C 219 41.234 219.063 42.301 219.195 43.363 C 219.314 44.361 219.502 45.353 219.754 46.333 C 219.992 47.275 220.294 48.204 220.658 49.115 C 221.022 50.019 221.437 50.898 221.914 51.746 C 222.397 52.613 222.938 53.448 223.534 54.246 C 224.112 55.012 224.74 55.74 225.418 56.425 C 226.09 57.109 226.812 57.744 227.578 58.328 C 228.363 58.924 229.186 59.47 230.046 59.96 C 230.888 60.444 231.767 60.871 232.665 61.235 C 233.569 61.606 234.499 61.913 235.447 62.158 C 236.427 62.409 237.425 62.604 238.436 62.723 C 239.516 62.855 240.597 62.924 241.683 62.924 C 243.165 62.924 244.641 62.799 246.104 62.541 C 247.423 62.315 248.723 61.957 249.972 61.48 C 251.172 61.022 252.327 60.444 253.414 59.759 C 254.538 59.062 255.587 58.252 256.554 57.348 C 256.799 57.109 257.018 56.852 257.213 56.569 C 257.389 56.312 257.546 56.035 257.672 55.74 C 257.791 55.464 257.885 55.169 257.942 54.867 C 258.004 54.572 258.036 54.264 258.036 53.957 C 258.036 53.58 257.992 53.197 257.904 52.833 C 257.816 52.462 257.69 52.098 257.521 51.759 C 257.339 51.395 257.119 51.055 256.861 50.741 C 256.566 50.39 256.246 50.063 255.894 49.768 C 255.436 49.416 254.921 49.14 254.375 48.952 C 253.853 48.776 253.313 48.682 252.761 48.682 C 252.095 48.682 251.436 48.801 250.814 49.04 C 250.098 49.31 249.42 49.68 248.804 50.139 C 248.39 50.49 247.944 50.798 247.473 51.062 C 246.983 51.332 246.468 51.558 245.934 51.74 C 245.325 51.947 244.704 52.098 244.069 52.192 C 243.278 52.311 242.481 52.374 241.683 52.374 C 241.093 52.374 240.509 52.337 239.925 52.267 C 239.403 52.198 238.888 52.098 238.38 51.966 C 237.902 51.834 237.431 51.677 236.973 51.482 C 236.527 51.294 236.094 51.074 235.673 50.829 C 235.246 50.572 234.832 50.289 234.442 49.982 C 234.065 49.68 233.708 49.354 233.375 49.008 C 233.042 48.657 232.734 48.28 232.452 47.884 C 232.144 47.457 231.874 47.017 231.629 46.559 C 231.397 46.113 231.189 45.655 231.007 45.177 C 230.825 44.694 230.674 44.192 230.549 43.683 C 230.417 43.143 230.323 42.59 230.26 42.031 C 230.191 41.416 230.153 40.788 230.153 40.166 C 230.153 39.161 230.235 38.157 230.398 37.171 C 230.53 36.367 230.743 35.576 231.026 34.809 C 231.277 34.125 231.597 33.472 231.981 32.85 C 232.351 32.247 232.784 31.682 233.262 31.167 C 233.758 30.633 234.304 30.156 234.894 29.742 C 235.453 29.346 236.05 29.013 236.678 28.749 C 237.344 28.467 238.034 28.259 238.744 28.121 C 239.592 27.964 240.446 27.883 241.306 27.883 C 242.135 27.883 242.958 27.958 243.774 28.109 C 244.421 28.228 245.055 28.416 245.658 28.674 C 246.255 28.931 246.826 29.252 247.354 29.635 C 247.988 30.093 248.572 30.614 249.106 31.186 C 249.382 31.494 249.696 31.782 250.029 32.034 C 250.349 32.279 250.701 32.486 251.071 32.655 C 251.442 32.825 251.825 32.951 252.214 33.032 C 252.616 33.114 253.031 33.158 253.439 33.158 C 253.941 33.158 254.444 33.082 254.921 32.938 C 255.392 32.794 255.838 32.58 256.24 32.297 C 256.629 32.034 256.987 31.726 257.314 31.387 C 257.621 31.073 257.879 30.721 258.099 30.338 C 258.3 29.98 258.457 29.597 258.557 29.195 C 258.664 28.787 258.714 28.372 258.714 27.958 C 258.714 27.663 258.689 27.361 258.632 27.066 C 258.582 26.777 258.507 26.495 258.4 26.225 C 258.293 25.948 258.161 25.685 258.004 25.44 C 257.854 25.195 257.678 24.963 257.489 24.749 C 256.441 23.543 255.273 22.444 254.004 21.471 C 252.83 20.573 251.555 19.807 250.211 19.191 C 248.873 18.576 247.473 18.117 246.029 17.816 C 244.478 17.496 242.895 17.332 241.306 17.332 L 241.306 17.332 Z " fill="rgb(0,4,225)"/><path d=" M 289.608 27.883 C 289.037 27.883 288.465 27.92 287.9 27.989 C 287.391 28.052 286.883 28.153 286.38 28.291 C 285.903 28.416 285.438 28.573 284.986 28.768 C 284.534 28.957 284.094 29.176 283.674 29.428 C 283.247 29.679 282.838 29.961 282.449 30.275 C 282.066 30.577 281.708 30.903 281.375 31.249 C 281.036 31.607 280.722 31.99 280.433 32.392 C 280.119 32.825 279.837 33.277 279.592 33.742 C 279.347 34.2 279.133 34.665 278.951 35.148 C 278.763 35.638 278.606 36.147 278.48 36.656 C 278.348 37.202 278.248 37.755 278.185 38.307 C 278.116 38.929 278.078 39.544 278.078 40.166 C 278.078 40.788 278.116 41.41 278.185 42.025 C 278.248 42.578 278.348 43.13 278.48 43.67 C 278.606 44.179 278.763 44.675 278.951 45.165 C 279.133 45.636 279.341 46.094 279.585 46.54 C 279.837 47.005 280.113 47.451 280.421 47.872 C 280.71 48.273 281.024 48.65 281.369 49.008 C 281.702 49.354 282.06 49.68 282.437 49.982 C 282.832 50.289 283.24 50.572 283.674 50.829 C 284.094 51.081 284.534 51.3 284.986 51.489 C 285.438 51.683 285.903 51.84 286.38 51.966 C 286.883 52.104 287.391 52.205 287.9 52.267 C 288.465 52.337 289.037 52.374 289.608 52.374 C 290.18 52.374 290.751 52.337 291.316 52.267 C 291.825 52.205 292.334 52.104 292.836 51.966 C 293.313 51.84 293.778 51.683 294.23 51.489 C 294.682 51.3 295.122 51.081 295.543 50.829 C 295.97 50.572 296.384 50.289 296.773 49.982 C 297.15 49.68 297.508 49.354 297.841 49.008 C 298.174 48.657 298.482 48.28 298.764 47.884 C 299.072 47.457 299.342 47.017 299.587 46.559 C 299.819 46.113 300.027 45.655 300.209 45.177 C 300.391 44.694 300.541 44.192 300.667 43.683 C 300.799 43.143 300.893 42.59 300.956 42.031 C 301.025 41.416 301.063 40.788 301.063 40.166 C 301.063 39.544 301.025 38.923 300.956 38.301 C 300.893 37.742 300.799 37.189 300.667 36.643 C 300.548 36.128 300.391 35.626 300.209 35.13 C 300.027 34.652 299.819 34.181 299.581 33.729 C 299.336 33.265 299.066 32.812 298.758 32.385 C 298.475 31.983 298.168 31.607 297.829 31.249 C 297.496 30.897 297.144 30.57 296.767 30.275 C 296.378 29.961 295.97 29.679 295.543 29.428 C 295.122 29.176 294.682 28.957 294.23 28.768 C 293.778 28.573 293.313 28.416 292.836 28.291 C 292.334 28.153 291.825 28.052 291.316 27.989 C 290.751 27.92 290.18 27.883 289.608 27.883 L 289.608 27.883 Z  M 289.608 17.332 C 290.695 17.332 291.781 17.395 292.861 17.527 C 293.866 17.653 294.864 17.841 295.844 18.092 C 296.786 18.337 297.709 18.639 298.614 19.003 C 299.499 19.361 300.366 19.782 301.201 20.253 C 302.055 20.736 302.871 21.276 303.65 21.873 C 304.41 22.444 305.132 23.072 305.804 23.751 C 306.476 24.429 307.104 25.151 307.675 25.911 C 308.272 26.702 308.812 27.531 309.296 28.391 C 309.773 29.227 310.187 30.093 310.539 30.991 C 310.903 31.902 311.211 32.831 311.45 33.786 C 311.707 34.784 311.895 35.802 312.015 36.825 C 312.147 37.937 312.216 39.048 312.216 40.166 C 312.216 41.265 312.153 42.364 312.021 43.457 C 311.902 44.474 311.713 45.485 311.462 46.477 C 311.224 47.419 310.928 48.349 310.57 49.259 C 310.219 50.151 309.804 51.018 309.34 51.859 C 308.862 52.72 308.328 53.549 307.738 54.334 C 307.167 55.1 306.545 55.822 305.873 56.5 C 305.207 57.178 304.491 57.806 303.732 58.384 C 302.953 58.974 302.13 59.521 301.276 60.004 C 300.447 60.475 299.581 60.896 298.689 61.254 C 297.791 61.612 296.861 61.92 295.919 62.158 C 294.927 62.416 293.922 62.604 292.905 62.723 C 291.812 62.855 290.707 62.924 289.608 62.924 C 288.509 62.924 287.41 62.862 286.318 62.73 C 285.3 62.604 284.289 62.416 283.297 62.165 C 282.349 61.92 281.419 61.618 280.515 61.254 C 279.617 60.896 278.744 60.482 277.909 60.004 C 277.048 59.521 276.219 58.981 275.428 58.384 C 274.668 57.806 273.946 57.178 273.274 56.5 C 272.602 55.822 271.974 55.1 271.403 54.334 C 270.812 53.542 270.279 52.72 269.801 51.859 C 269.337 51.018 268.922 50.151 268.571 49.259 C 268.213 48.349 267.917 47.419 267.679 46.477 C 267.428 45.485 267.239 44.474 267.12 43.457 C 266.988 42.364 266.925 41.265 266.925 40.166 C 266.925 39.048 266.988 37.937 267.12 36.825 C 267.239 35.802 267.428 34.784 267.679 33.786 C 267.917 32.837 268.219 31.902 268.577 30.991 C 268.929 30.106 269.337 29.239 269.801 28.398 C 270.279 27.537 270.812 26.715 271.403 25.923 C 271.974 25.157 272.602 24.435 273.274 23.757 C 273.946 23.079 274.668 22.451 275.428 21.873 C 276.219 21.276 277.048 20.736 277.909 20.253 C 278.744 19.775 279.617 19.361 280.515 19.003 C 281.419 18.639 282.349 18.337 283.297 18.092 C 284.289 17.841 285.3 17.653 286.318 17.527 C 287.41 17.395 288.509 17.332 289.608 17.332 L 289.608 17.332 Z " fill-rule="evenodd" fill="rgb(0,4,225)"/><path d=" M 343.11 52.374 C 342.557 52.374 342.005 52.337 341.458 52.267 C 340.956 52.205 340.46 52.104 339.976 51.966 C 339.499 51.84 339.041 51.677 338.588 51.482 C 338.13 51.281 337.69 51.055 337.263 50.798 C 336.836 50.54 336.422 50.252 336.026 49.938 C 335.643 49.63 335.285 49.297 334.946 48.939 C 334.594 48.575 334.274 48.192 333.979 47.784 C 333.665 47.35 333.376 46.892 333.119 46.421 C 332.874 45.962 332.654 45.491 332.459 45.008 C 332.271 44.518 332.114 44.022 331.982 43.507 C 331.85 42.98 331.75 42.433 331.687 41.893 C 331.618 41.29 331.58 40.694 331.58 40.091 C 331.58 39.488 331.618 38.885 331.687 38.288 C 331.75 37.748 331.85 37.208 331.988 36.675 C 332.114 36.172 332.271 35.676 332.459 35.192 C 332.648 34.715 332.867 34.257 333.119 33.805 C 333.37 33.34 333.659 32.894 333.973 32.467 C 334.268 32.059 334.588 31.676 334.933 31.318 C 335.273 30.966 335.637 30.633 336.02 30.326 C 336.416 30.012 336.83 29.716 337.263 29.459 C 337.69 29.201 338.13 28.975 338.588 28.774 C 339.041 28.58 339.499 28.416 339.976 28.291 C 340.46 28.153 340.956 28.052 341.458 27.989 C 342.005 27.92 342.557 27.883 343.11 27.883 C 343.663 27.883 344.215 27.92 344.762 27.989 C 345.264 28.052 345.76 28.153 346.244 28.291 C 346.721 28.416 347.179 28.58 347.631 28.774 C 348.09 28.975 348.529 29.201 348.957 29.459 C 349.39 29.716 349.804 30.005 350.194 30.326 C 350.577 30.627 350.935 30.96 351.274 31.318 C 351.613 31.676 351.933 32.052 352.222 32.454 C 352.53 32.881 352.806 33.327 353.057 33.792 C 353.302 34.238 353.516 34.703 353.698 35.18 C 353.886 35.663 354.043 36.16 354.169 36.662 C 354.294 37.196 354.395 37.736 354.458 38.282 C 354.527 38.879 354.564 39.488 354.564 40.091 C 354.564 40.694 354.527 41.297 354.458 41.899 C 354.395 42.446 354.301 42.986 354.169 43.526 C 354.043 44.035 353.886 44.537 353.698 45.027 C 353.516 45.51 353.296 45.981 353.051 46.44 C 352.8 46.904 352.523 47.357 352.209 47.79 C 351.921 48.198 351.607 48.581 351.267 48.945 C 350.928 49.297 350.57 49.63 350.187 49.938 C 349.798 50.252 349.383 50.54 348.957 50.798 C 348.529 51.055 348.09 51.281 347.631 51.482 C 347.179 51.677 346.721 51.84 346.244 51.966 C 345.76 52.104 345.264 52.205 344.762 52.267 C 344.215 52.337 343.663 52.374 343.11 52.374 L 343.11 52.374 Z  M 354.263 21.615 L 354.263 5.727 C 354.263 5.319 354.301 4.911 354.37 4.509 C 354.439 4.132 354.546 3.762 354.696 3.404 C 354.834 3.065 355.01 2.738 355.218 2.43 C 355.425 2.129 355.663 1.84 355.933 1.583 C 356.197 1.331 356.48 1.099 356.787 0.904 C 357.095 0.703 357.415 0.54 357.755 0.408 C 358.1 0.27 358.458 0.17 358.828 0.1 C 359.212 0.031 359.601 0 359.99 0 C 360.398 0 360.8 0.038 361.202 0.107 C 361.579 0.17 361.943 0.276 362.301 0.414 C 362.64 0.553 362.961 0.716 363.268 0.917 C 363.57 1.118 363.852 1.35 364.11 1.608 C 364.367 1.865 364.6 2.148 364.801 2.449 C 365.002 2.757 365.165 3.077 365.303 3.416 C 365.441 3.774 365.548 4.138 365.611 4.515 C 365.68 4.917 365.717 5.319 365.717 5.727 L 365.717 40.091 C 365.717 41.158 365.648 42.226 365.517 43.287 C 365.391 44.286 365.203 45.278 364.945 46.258 C 364.7 47.206 364.386 48.135 364.016 49.046 C 363.639 49.956 363.206 50.842 362.716 51.696 C 362.22 52.556 361.667 53.392 361.064 54.183 C 360.48 54.955 359.846 55.684 359.168 56.368 C 358.496 57.053 357.773 57.687 357.014 58.271 C 356.235 58.874 355.418 59.42 354.571 59.916 C 353.729 60.406 352.856 60.839 351.958 61.216 C 351.06 61.593 350.143 61.901 349.208 62.152 C 348.241 62.409 347.261 62.598 346.269 62.723 C 345.22 62.855 344.165 62.924 343.11 62.924 C 342.055 62.924 341.006 62.862 339.964 62.73 C 338.965 62.604 337.985 62.409 337.018 62.158 C 336.07 61.907 335.141 61.599 334.236 61.223 C 333.326 60.852 332.44 60.412 331.58 59.923 C 330.72 59.427 329.884 58.874 329.093 58.265 C 328.327 57.681 327.599 57.04 326.914 56.356 C 326.236 55.671 325.602 54.943 325.018 54.17 C 324.421 53.379 323.875 52.55 323.385 51.683 C 322.901 50.829 322.474 49.95 322.11 49.04 C 321.739 48.135 321.432 47.206 321.187 46.258 C 320.936 45.278 320.747 44.286 320.622 43.287 C 320.49 42.226 320.427 41.158 320.427 40.091 C 320.427 39.023 320.49 37.956 320.609 36.894 C 320.722 35.896 320.898 34.91 321.137 33.93 C 321.363 32.994 321.652 32.071 321.991 31.167 C 322.33 30.269 322.725 29.396 323.171 28.548 C 323.63 27.675 324.145 26.834 324.716 26.024 C 325.256 25.258 325.847 24.523 326.487 23.838 C 327.115 23.16 327.793 22.532 328.503 21.948 C 329.225 21.358 329.985 20.812 330.782 20.328 C 331.574 19.838 332.403 19.399 333.263 19.028 C 334.105 18.658 334.977 18.344 335.869 18.099 C 336.774 17.841 337.697 17.653 338.632 17.527 C 339.618 17.395 340.611 17.332 341.603 17.332 C 343.173 17.332 344.743 17.502 346.275 17.847 C 347.757 18.174 349.189 18.67 350.558 19.329 C 351.87 19.957 353.114 20.724 354.263 21.615 L 354.263 21.615 Z " fill-rule="evenodd" fill="rgb(0,4,225)"/><path d=" M 397.149 27.581 C 397.89 27.581 398.631 27.644 399.36 27.77 C 399.956 27.876 400.54 28.04 401.105 28.259 C 401.627 28.46 402.123 28.718 402.587 29.013 C 403.058 29.321 403.498 29.666 403.9 30.062 C 404.308 30.457 404.679 30.897 405.018 31.362 C 405.363 31.845 405.664 32.354 405.922 32.888 C 406.211 33.484 406.449 34.093 406.632 34.728 C 406.644 34.778 406.663 34.834 406.676 34.891 L 386.31 34.891 C 386.316 34.878 386.323 34.866 386.323 34.86 C 386.542 34.225 386.812 33.61 387.133 33.026 C 387.434 32.48 387.786 31.958 388.175 31.475 C 388.564 30.991 388.998 30.539 389.462 30.125 C 389.908 29.735 390.398 29.384 390.913 29.082 C 391.447 28.768 392.012 28.504 392.596 28.297 C 393.249 28.065 393.921 27.889 394.606 27.782 C 395.447 27.65 396.295 27.581 397.149 27.581 L 397.149 27.581 Z  M 417.797 39.488 C 417.797 39.846 417.766 40.198 417.697 40.549 C 417.634 40.888 417.533 41.221 417.402 41.541 C 417.27 41.855 417.106 42.157 416.912 42.433 C 416.711 42.716 416.491 42.98 416.24 43.218 C 415.995 43.457 415.725 43.664 415.442 43.852 C 415.153 44.035 414.852 44.185 414.538 44.311 C 414.211 44.436 413.879 44.531 413.533 44.593 C 413.175 44.656 412.811 44.688 412.447 44.688 L 386.197 44.688 C 386.209 44.719 386.222 44.75 386.235 44.788 C 386.454 45.447 386.743 46.082 387.089 46.685 C 387.421 47.275 387.811 47.834 388.25 48.349 C 388.715 48.901 389.23 49.404 389.789 49.862 C 390.335 50.308 390.926 50.71 391.547 51.055 C 392.163 51.401 392.81 51.69 393.475 51.922 C 394.185 52.167 394.92 52.355 395.667 52.468 C 396.534 52.607 397.407 52.676 398.279 52.676 C 398.92 52.676 399.554 52.619 400.182 52.512 C 400.93 52.38 401.664 52.192 402.386 51.947 C 403.109 51.702 403.818 51.401 404.503 51.055 C 404.986 50.817 405.438 50.528 405.872 50.208 C 406.123 50.007 406.387 49.837 406.663 49.68 C 406.946 49.529 407.241 49.398 407.542 49.297 C 407.856 49.19 408.17 49.115 408.497 49.065 C 408.83 49.008 409.169 48.983 409.508 48.983 C 409.859 48.983 410.205 49.008 410.55 49.065 C 410.871 49.115 411.191 49.197 411.492 49.303 C 411.781 49.41 412.051 49.536 412.315 49.693 C 412.56 49.837 412.792 50.007 413.006 50.195 C 413.32 50.459 413.609 50.754 413.866 51.068 C 414.117 51.369 414.331 51.702 414.507 52.054 C 414.67 52.38 414.795 52.732 414.883 53.09 C 414.965 53.448 415.009 53.812 415.009 54.183 C 415.009 54.547 414.965 54.905 414.883 55.257 C 414.802 55.608 414.676 55.941 414.513 56.261 C 414.343 56.588 414.136 56.896 413.891 57.172 C 413.646 57.455 413.37 57.706 413.075 57.932 C 412.139 58.673 411.134 59.326 410.079 59.872 C 408.817 60.532 407.505 61.091 406.154 61.543 C 404.804 62.001 403.423 62.353 402.022 62.598 C 400.785 62.818 399.535 62.924 398.279 62.924 C 397.155 62.924 396.031 62.862 394.913 62.73 C 393.871 62.604 392.841 62.416 391.824 62.165 C 390.857 61.926 389.902 61.624 388.973 61.26 C 388.056 60.902 387.164 60.488 386.297 60.017 C 385.412 59.533 384.558 58.987 383.741 58.39 C 382.95 57.813 382.209 57.185 381.512 56.506 C 380.815 55.834 380.174 55.112 379.578 54.346 C 378.975 53.567 378.416 52.745 377.92 51.884 C 377.436 51.043 377.003 50.17 376.633 49.272 C 376.262 48.361 375.948 47.432 375.703 46.477 C 375.439 45.485 375.245 44.474 375.119 43.457 C 374.987 42.364 374.918 41.265 374.918 40.166 C 374.918 39.067 374.981 37.968 375.107 36.875 C 375.226 35.864 375.408 34.853 375.659 33.861 C 375.892 32.913 376.187 31.977 376.538 31.067 C 376.884 30.169 377.286 29.296 377.744 28.454 C 378.221 27.581 378.749 26.746 379.333 25.948 C 379.898 25.176 380.514 24.448 381.173 23.763 C 381.832 23.085 382.542 22.457 383.289 21.879 C 384.049 21.283 384.859 20.742 385.695 20.259 C 386.517 19.782 387.371 19.367 388.25 19.003 C 389.142 18.639 390.053 18.337 390.982 18.092 C 391.956 17.841 392.941 17.653 393.934 17.527 C 395.001 17.395 396.075 17.332 397.149 17.332 C 398.229 17.332 399.303 17.402 400.377 17.533 C 401.344 17.653 402.305 17.835 403.247 18.092 C 404.12 18.325 404.98 18.62 405.815 18.972 C 406.619 19.317 407.398 19.713 408.151 20.171 C 408.918 20.636 409.652 21.157 410.349 21.728 C 411.028 22.287 411.668 22.896 412.265 23.55 C 412.868 24.215 413.426 24.919 413.929 25.666 C 414.456 26.445 414.927 27.261 415.342 28.109 C 415.737 28.906 416.083 29.735 416.378 30.577 C 416.686 31.462 416.943 32.354 417.144 33.265 C 417.364 34.238 417.521 35.23 417.628 36.222 C 417.741 37.309 417.797 38.395 417.797 39.488 L 417.797 39.488 Z " fill-rule="evenodd" fill="rgb(0,4,225)"/></g><g><path d=" M 434.365 25.09 C 434.365 20.625 437.989 17 442.454 17 C 446.919 17 450.544 20.625 450.544 25.09 C 450.544 29.555 446.919 33.179 442.454 33.179 C 437.989 33.179 434.365 29.555 434.365 25.09 Z " fill="rgb(255,0,119)"/><path d=" M 450.541 49.162 C 450.544 49.186 450.544 49.21 450.544 49.234 C 450.544 49.289 450.543 49.344 450.541 49.398 C 450.631 55.453 446.194 60.649 439.367 62.403 C 438.241 62.677 436.621 62.924 435.77 62.924 C 434.259 62.897 434.232 62.897 435.056 62.54 C 438.356 61.563 440.919 58.313 440.544 57 C 440.409 56.953 440.274 56.902 440.139 56.847 C 437.054 55.923 434.738 53.207 434.393 49.914 C 434.377 49.688 434.365 49.462 434.365 49.234 C 434.365 49.21 434.365 49.186 434.367 49.162 C 434.365 49.138 434.365 49.114 434.365 49.09 C 434.365 44.625 437.989 41 442.454 41 C 446.919 41 450.544 44.625 450.544 49.09 C 450.544 49.114 450.544 49.138 450.541 49.162 Z " fill="rgb(255,0,119)"/></g></g></g></svg>