<?xml version="1.0" standalone="no"?><!-- Generator: Gravit.io --><svg xmlns="http://www.w3.org/2000/svg" xmlns:xlink="http://www.w3.org/1999/xlink" style="isolation:isolate" viewBox="0 0 668 128.53" width="668" height="128.53"><defs><clipPath id="_clipPath_NGsuKU2hsExSvt2cy3LR28uZg55QVOSq"><rect width="668" height="128.53"/></clipPath></defs><g clip-path="url(#_clipPath_NGsuKU2hsExSvt2cy3LR28uZg55QVOSq)"><g><g><path d=" M 644.321 46.871 L 644.321 46.871 L 644.321 46.871 Q 644.321 42.085 647.596 38.559 L 647.596 38.559 L 647.596 38.559 Q 650.871 35.032 655.909 35.032 L 655.909 35.032 L 655.909 35.032 Q 660.695 35.032 664.347 38.559 L 664.347 38.559 L 664.347 38.559 Q 668 42.085 668 46.871 L 668 46.871 L 668 46.871 Q 668 51.91 664.347 55.31 L 664.347 55.31 L 664.347 55.31 Q 660.695 58.711 655.909 58.711 L 655.909 58.711 L 655.909 58.711 Q 650.871 58.711 647.596 55.31 L 647.596 55.31 L 647.596 55.31 Q 644.321 51.91 644.321 46.871 Z " fill="rgb(255,0,119)"/><path d=" M 647.626 128.53 L 642.588 123.744 L 652.412 105.355 L 646.115 105.355 L 646.115 82.683 L 666.015 82.683 L 666.015 109.133 L 647.626 128.53 Z " fill="rgb(255,0,119)"/></g><g><path d=" M 21.761 31.26 L 21.761 36.059 L 39.181 36.059 L 39.181 44.031 L 21.761 44.031 L 21.761 105.473 L 13.513 105.473 L 13.513 44.031 L 0 44.031 L 0 36.059 L 13.386 36.059 L 13.386 31.26 L 21.761 31.26 L 21.761 31.26 Z " fill="rgb(255,255,255)"/><path d=" M 21.761 38.521 L 21.761 22.854 C 21.761 22.854 21.761 22.854 21.761 22.854 C 21.761 21.888 21.814 20.922 21.931 19.956 C 22.037 19.022 22.196 18.098 22.419 17.175 C 22.611 16.315 22.887 15.466 23.226 14.648 C 23.545 13.916 23.916 13.215 24.362 12.546 C 24.776 11.92 25.264 11.347 25.816 10.837 C 26.4 10.285 27.037 9.808 27.738 9.404 C 28.375 9.043 29.075 8.767 29.797 8.597 C 30.784 8.353 31.803 8.226 32.822 8.226 C 33.268 8.237 33.714 8.247 34.171 8.279 C 34.563 8.311 34.967 8.353 35.359 8.417 C 35.805 8.481 36.241 8.544 36.686 8.629 C 37.132 8.704 37.567 8.789 38.013 8.884 C 38.035 8.884 38.056 8.895 38.077 8.895 L 38.48 8.927 L 38.48 8.927 C 38.502 8.927 38.512 8.927 38.533 8.927 C 39.043 8.937 39.542 8.789 39.977 8.513 C 40.55 8.141 40.964 7.557 41.124 6.878 L 41.676 4.511 C 41.729 4.309 41.75 4.107 41.75 3.895 C 41.75 3.428 41.633 2.971 41.4 2.568 C 41.06 1.984 40.508 1.549 39.85 1.347 C 38.799 1.029 37.716 0.795 36.612 0.657 C 35.306 0.487 34.001 0.402 32.684 0.402 C 31.58 0.402 30.466 0.487 29.372 0.647 C 28.247 0.827 27.133 1.082 26.029 1.422 C 24.882 1.782 23.768 2.271 22.727 2.876 C 21.623 3.523 20.594 4.277 19.638 5.126 C 18.662 6.018 17.802 7.037 17.091 8.152 C 16.263 9.457 15.562 10.848 15.01 12.302 C 14.469 13.767 14.076 15.274 13.842 16.824 C 13.534 18.862 13.375 20.922 13.386 22.981 L 13.386 38.521 L 21.761 38.521 L 21.761 38.521 Z " fill="rgb(255,255,255)"/><path d=" M 60.758 42.386 L 60.758 42.375 L 60.758 42.375 L 60.758 42.386 L 60.758 42.386 L 60.758 42.386 Z  M 60.758 42.375 L 60.758 42.386 L 60.758 42.375 L 60.758 42.375 L 60.758 42.375 Z  M 69.144 44.424 C 69.812 43.458 70.556 42.545 71.352 41.685 C 72.275 40.688 73.305 39.785 74.409 38.989 C 75.545 38.182 76.734 37.45 77.986 36.813 C 79.154 36.219 80.364 35.709 81.606 35.306 C 82.827 34.913 84.069 34.616 85.332 34.403 C 86.606 34.202 87.901 34.106 89.196 34.106 L 89.886 34.106 L 90.438 34.106 C 90.725 34.106 91.011 34.117 91.298 34.149 C 91.308 34.149 91.308 34.149 91.319 34.149 L 92.2 34.297 C 92.211 34.297 92.211 34.297 92.221 34.297 C 92.826 34.414 93.368 34.743 93.761 35.221 C 94.153 35.698 94.366 36.293 94.366 36.909 C 94.366 36.909 94.366 36.909 94.366 36.909 L 94.366 39.562 C 94.366 39.562 94.366 39.562 94.366 39.573 C 94.355 40.38 93.983 41.155 93.336 41.654 C 92.869 42.025 92.296 42.216 91.701 42.216 C 91.489 42.216 91.277 42.195 91.075 42.142 L 90.788 42.089 L 90.64 42.078 L 90.173 42.078 L 89.886 42.078 C 89.886 42.078 89.886 42.078 89.886 42.078 C 88.124 42.078 86.362 42.301 84.653 42.747 C 83.315 43.097 82.031 43.649 80.863 44.392 C 79.61 45.178 78.453 46.101 77.402 47.142 C 76.341 48.214 75.396 49.403 74.579 50.677 C 73.74 51.993 73.008 53.383 72.403 54.827 C 71.744 56.388 71.214 57.991 70.81 59.636 C 70.386 61.313 70.078 63.012 69.866 64.731 C 69.664 66.366 69.558 68.011 69.558 69.657 C 69.558 69.657 69.558 69.657 69.558 69.657 L 69.558 105.473 L 61.172 105.473 L 61.172 54.88 L 61.15 53.394 L 61.15 53.352 L 61.097 51.197 L 61.065 50.103 L 61.044 48.968 L 61.044 48.968 L 60.97 46.675 L 60.874 44.424 L 60.758 42.386 L 60.598 40.327 L 60.492 38.968 L 60.482 38.766 C 60.482 38.756 60.482 38.745 60.482 38.734 C 60.471 38.076 60.715 37.429 61.161 36.93 C 61.671 36.378 62.382 36.059 63.135 36.059 L 66.203 36.059 C 66.203 36.059 66.203 36.059 66.203 36.059 C 66.872 36.07 67.509 36.314 67.997 36.749 C 68.486 37.195 68.783 37.811 68.846 38.458 C 68.846 38.458 68.846 38.458 68.846 38.469 L 68.942 39.456 L 68.974 39.955 L 69.08 42.025 L 69.08 42.121 L 69.112 43.161 L 69.133 44.212 L 69.144 44.424 L 69.144 44.424 Z " fill-rule="evenodd" fill="rgb(255,255,255)"/><path d=" M 165.801 80.697 C 165.186 82.363 164.411 83.977 163.487 85.495 C 162.617 86.928 161.598 88.276 160.451 89.497 C 159.294 90.728 158.02 91.843 156.64 92.819 C 155.165 93.849 153.583 94.741 151.938 95.473 C 150.314 96.205 148.605 96.747 146.853 97.087 C 144.783 97.49 142.681 97.702 140.579 97.692 C 138.478 97.702 136.386 97.49 134.327 97.087 C 132.597 96.747 130.919 96.205 129.306 95.494 C 127.682 94.751 126.132 93.86 124.667 92.83 C 123.287 91.853 122.013 90.739 120.867 89.497 C 119.72 88.276 118.691 86.928 117.82 85.495 C 116.886 83.977 116.111 82.374 115.506 80.697 C 114.89 79.009 114.434 77.268 114.137 75.495 C 113.797 73.563 113.627 71.61 113.627 69.646 C 113.627 67.735 113.797 65.835 114.116 63.946 C 114.434 62.184 114.89 60.443 115.506 58.755 C 116.111 57.088 116.886 55.475 117.82 53.957 C 118.691 52.513 119.72 51.176 120.867 49.944 C 122.013 48.713 123.287 47.609 124.656 46.643 C 126.111 45.624 127.661 44.753 129.295 44.053 C 130.898 43.352 132.575 42.821 134.295 42.482 C 136.365 42.089 138.467 41.887 140.579 41.887 C 142.692 41.887 144.804 42.089 146.885 42.482 C 148.626 42.821 150.324 43.341 151.959 44.053 C 153.604 44.753 155.175 45.624 156.64 46.653 C 158.02 47.619 159.294 48.713 160.451 49.944 C 161.598 51.176 162.617 52.524 163.487 53.957 C 164.411 55.475 165.186 57.088 165.801 58.755 C 166.417 60.443 166.884 62.184 167.181 63.946 C 167.51 65.835 167.67 67.735 167.67 69.646 C 167.67 71.61 167.51 73.563 167.181 75.495 C 166.884 77.268 166.417 79.009 165.801 80.697 L 165.801 80.697 Z  M 173.317 55.347 C 174.155 57.492 174.782 59.721 175.196 61.992 C 175.642 64.519 175.865 67.088 175.865 69.646 C 175.865 72.226 175.642 74.784 175.196 77.321 C 174.782 79.614 174.155 81.854 173.317 84.03 C 172.468 86.195 171.417 88.265 170.175 90.229 C 168.975 92.097 167.585 93.838 166.035 95.42 C 164.474 96.991 162.765 98.403 160.918 99.624 C 158.986 100.897 156.927 101.98 154.783 102.851 C 152.628 103.721 150.398 104.369 148.116 104.793 C 145.632 105.25 143.106 105.483 140.579 105.473 C 138.053 105.483 135.526 105.25 133.043 104.793 C 130.781 104.369 128.573 103.721 126.44 102.851 C 124.327 101.98 122.289 100.897 120.379 99.634 C 118.542 98.403 116.833 96.991 115.273 95.42 C 113.723 93.838 112.332 92.097 111.143 90.229 C 109.891 88.276 108.829 86.195 107.98 84.03 C 107.141 81.864 106.515 79.614 106.122 77.321 C 105.666 74.784 105.443 72.226 105.443 69.646 C 105.443 67.088 105.676 64.519 106.122 61.992 C 106.526 59.721 107.152 57.492 108.001 55.337 C 108.84 53.203 109.901 51.144 111.143 49.201 C 112.343 47.365 113.733 45.645 115.294 44.085 C 116.844 42.535 118.542 41.144 120.379 39.945 C 122.289 38.681 124.327 37.609 126.44 36.739 C 128.573 35.868 130.781 35.221 133.043 34.807 C 135.526 34.34 138.053 34.106 140.579 34.106 C 143.106 34.106 145.632 34.34 148.116 34.786 C 150.398 35.21 152.628 35.868 154.783 36.739 C 156.927 37.599 158.986 38.671 160.918 39.945 C 162.755 41.144 164.464 42.535 166.024 44.085 C 167.574 45.645 168.965 47.354 170.153 49.201 C 171.417 51.144 172.468 53.192 173.317 55.347 L 173.317 55.347 Z " fill-rule="evenodd" fill="rgb(255,255,255)"/><path d=" M 194.367 42.386 L 194.367 42.375 L 194.367 42.375 L 194.367 42.386 L 194.367 42.386 L 194.367 42.386 Z  M 194.367 42.375 L 194.367 42.386 L 194.367 42.375 L 194.367 42.375 L 194.367 42.375 Z  M 202.785 45.751 C 203.677 44.594 204.643 43.501 205.672 42.482 C 206.744 41.431 207.891 40.454 209.101 39.562 C 210.322 38.681 211.606 37.885 212.954 37.195 C 214.292 36.526 215.682 35.953 217.105 35.497 C 218.527 35.03 219.982 34.679 221.468 34.467 C 222.964 34.223 224.482 34.106 226.011 34.106 C 228.378 34.106 230.745 34.361 233.07 34.849 C 234.928 35.242 236.711 35.9 238.388 36.792 C 240.034 37.662 241.573 38.724 242.964 39.966 C 244.291 41.123 245.458 42.45 246.456 43.915 C 247.422 45.337 248.25 46.855 248.929 48.447 C 249.641 50.103 250.203 51.834 250.607 53.596 C 251.01 55.305 251.307 57.046 251.498 58.797 C 251.7 60.549 251.796 62.322 251.796 64.084 L 251.796 105.473 L 243.409 105.473 L 243.409 64.36 C 243.409 64.36 243.409 64.349 243.409 64.349 C 243.409 63.15 243.346 61.939 243.229 60.74 C 243.08 59.317 242.879 57.906 242.624 56.494 C 242.369 55.188 241.998 53.904 241.52 52.651 C 241.074 51.494 240.511 50.39 239.853 49.339 C 239.206 48.331 238.442 47.396 237.582 46.547 C 236.648 45.624 235.597 44.806 234.482 44.116 C 233.452 43.469 232.338 42.991 231.149 42.705 C 229.472 42.291 227.741 42.078 226.011 42.078 C 224.461 42.089 222.911 42.248 221.393 42.567 C 219.928 42.885 218.506 43.373 217.147 44 C 215.799 44.615 214.515 45.39 213.336 46.303 C 212.105 47.248 210.99 48.32 209.993 49.498 C 208.974 50.698 208.082 51.993 207.318 53.362 C 206.415 54.997 205.651 56.706 205.046 58.479 C 204.42 60.23 203.974 62.046 203.687 63.882 C 203.337 66.164 203.167 68.468 203.167 70.771 C 203.167 70.771 203.167 70.771 203.167 70.771 L 203.167 105.473 L 194.77 105.473 L 194.77 54.88 L 194.76 53.394 L 194.76 53.362 L 194.707 51.197 L 194.664 50.072 L 194.632 48.968 L 194.558 46.675 L 194.558 46.675 C 194.558 46.664 194.558 46.664 194.558 46.664 C 194.547 45.91 194.516 45.167 194.473 44.424 C 194.473 44.424 194.473 44.424 194.473 44.424 L 194.367 42.386 L 194.208 40.327 L 194.091 38.979 L 194.08 38.734 C 194.08 38.724 194.08 38.713 194.08 38.703 C 194.08 38.044 194.324 37.408 194.77 36.93 C 195.28 36.378 195.991 36.059 196.745 36.059 L 199.813 36.059 C 200.471 36.059 201.097 36.304 201.585 36.749 C 202.084 37.195 202.392 37.8 202.456 38.458 C 202.456 38.469 202.456 38.469 202.456 38.469 L 202.573 39.945 C 202.573 39.955 202.573 39.955 202.573 39.955 C 202.615 40.677 202.647 41.399 202.668 42.121 L 202.711 43.161 L 202.742 44.201 L 202.774 45.422 L 202.785 45.751 L 202.785 45.751 Z " fill-rule="evenodd" fill="rgb(255,255,255)"/><path d=" M 288.669 13.29 L 288.669 34.382 L 307.479 34.382 L 307.479 42.354 L 288.669 42.354 L 288.669 87.915 C 288.669 88.849 288.733 89.783 288.86 90.707 C 288.945 91.344 289.093 91.97 289.306 92.575 C 289.497 93.17 289.752 93.732 290.081 94.252 C 290.346 94.645 290.654 95.006 291.004 95.314 C 291.376 95.653 291.779 95.951 292.214 96.205 C 292.671 96.471 293.159 96.694 293.669 96.874 C 294.242 97.076 294.826 97.235 295.431 97.331 C 296.206 97.447 296.981 97.501 297.766 97.511 C 298.902 97.511 300.027 97.416 301.142 97.225 C 302.086 97.044 303.01 96.779 303.912 96.439 C 304.22 96.322 304.549 96.259 304.878 96.259 C 305.335 96.259 305.781 96.375 306.184 96.598 C 306.874 96.991 307.352 97.67 307.49 98.456 L 307.925 100.844 L 307.957 101.237 C 307.957 101.248 307.957 101.269 307.957 101.28 C 307.957 101.725 307.851 102.161 307.638 102.553 C 307.341 103.084 306.885 103.509 306.322 103.742 L 306.322 103.742 C 305.664 104.008 305.006 104.241 304.326 104.443 C 303.52 104.676 302.702 104.857 301.885 105.016 C 301.067 105.165 300.239 105.292 299.411 105.377 C 298.626 105.441 297.851 105.483 297.065 105.473 C 295.654 105.473 294.231 105.356 292.83 105.133 C 291.684 104.931 290.558 104.613 289.486 104.178 C 288.425 103.742 287.427 103.169 286.503 102.49 C 285.633 101.832 284.847 101.057 284.189 100.176 C 283.584 99.379 283.053 98.541 282.586 97.66 C 282.13 96.747 281.737 95.802 281.419 94.836 C 281.079 93.785 280.835 92.702 280.676 91.609 C 280.506 90.388 280.41 89.146 280.41 87.915 C 280.41 87.915 280.41 87.915 280.41 87.915 L 280.41 42.354 L 266.472 42.354 L 266.472 34.382 L 280.272 34.382 L 280.272 13.29 L 288.669 13.29 L 288.669 13.29 Z " fill="rgb(255,255,255)"/><path d=" M 381.704 93.835 L 381.704 93.793 C 381.704 93.793 381.704 93.793 381.704 93.793 C 381.704 92.573 381.177 91.395 380.276 90.578 L 378.419 88.859 C 377.602 88.069 376.521 87.64 375.385 87.64 C 375.385 87.64 375.385 87.64 375.385 87.64 L 375.329 87.64 C 374.193 87.64 373.098 88.097 372.28 88.901 C 371.393 89.746 370.423 90.481 369.384 91.118 C 368.289 91.797 367.125 92.352 365.919 92.795 C 364.644 93.239 363.328 93.585 361.997 93.821 C 360.709 94.042 359.392 94.153 358.075 94.153 C 356.357 94.153 354.639 93.987 352.962 93.641 C 351.562 93.349 350.204 92.906 348.915 92.296 C 347.571 91.686 346.282 90.952 345.09 90.079 C 343.982 89.247 342.942 88.319 342 87.293 C 341.071 86.24 340.24 85.104 339.519 83.898 C 338.743 82.595 338.078 81.223 337.565 79.796 C 337.025 78.341 336.623 76.844 336.36 75.32 C 336.082 73.74 335.944 72.132 335.944 70.525 C 335.944 68.917 336.082 67.31 336.36 65.73 C 336.623 64.219 337.025 62.723 337.565 61.268 C 338.078 59.84 338.729 58.44 339.505 57.124 C 340.24 55.904 341.085 54.74 342.041 53.673 C 342.97 52.62 344.009 51.664 345.132 50.818 C 346.324 49.931 347.599 49.169 348.943 48.532 C 350.232 47.922 351.59 47.465 352.99 47.187 C 354.652 46.827 356.357 46.647 358.075 46.647 C 359.337 46.647 360.612 46.772 361.845 47.035 C 363.092 47.284 364.312 47.673 365.476 48.171 C 366.654 48.67 367.776 49.294 368.83 50.028 C 369.841 50.721 370.797 51.525 371.67 52.412 C 372.46 53.257 373.541 53.742 374.692 53.798 C 374.705 53.798 374.719 53.798 374.719 53.798 L 374.775 53.798 L 374.83 53.798 L 374.858 53.798 C 375.953 53.798 377.006 53.396 377.824 52.675 C 377.824 52.675 377.824 52.675 377.824 52.675 L 379.944 50.805 C 379.944 50.805 379.944 50.805 379.944 50.805 C 380.859 50.001 381.413 48.85 381.454 47.617 C 381.454 47.617 381.454 47.603 381.454 47.589 L 381.454 47.562 L 381.454 47.506 L 381.454 47.479 L 381.454 47.437 C 381.454 47.437 381.454 47.437 381.454 47.437 C 381.454 46.287 381.011 45.192 380.207 44.374 C 378.835 42.947 377.311 41.672 375.662 40.577 C 373.957 39.427 372.128 38.457 370.215 37.695 C 368.317 36.919 366.349 36.336 364.339 35.962 C 362.275 35.547 360.168 35.353 358.075 35.353 C 355.678 35.353 353.294 35.588 350.938 36.059 C 348.749 36.489 346.615 37.168 344.578 38.041 C 342.554 38.928 340.628 39.995 338.812 41.242 C 337.039 42.476 335.389 43.875 333.879 45.427 C 332.368 46.98 331.01 48.698 329.86 50.541 C 328.64 52.467 327.601 54.505 326.783 56.639 C 325.952 58.759 325.328 60.963 324.926 63.208 C 324.497 65.619 324.275 68.072 324.275 70.525 C 324.275 72.978 324.497 75.431 324.926 77.842 C 325.328 80.101 325.952 82.304 326.783 84.439 C 327.615 86.559 328.64 88.596 329.86 90.522 C 331.024 92.338 332.382 94.042 333.893 95.581 C 335.403 97.119 337.066 98.505 338.84 99.71 C 340.669 100.93 342.596 101.983 344.619 102.829 C 346.656 103.702 348.777 104.353 350.966 104.755 C 353.308 105.212 355.692 105.448 358.075 105.448 C 360.057 105.448 362.039 105.281 363.993 104.963 C 365.975 104.644 367.929 104.159 369.827 103.535 C 371.809 102.87 373.722 101.969 375.495 100.875 C 377.283 99.78 378.932 98.477 380.415 96.994 C 381.247 96.149 381.704 95.026 381.704 93.848 C 381.704 93.848 381.704 93.848 381.704 93.835 L 381.704 93.835 Z " fill="rgb(255,255,255)"/><path d=" M 464.205 70.275 C 464.205 72.77 463.997 75.264 463.568 77.717 C 463.166 79.976 462.542 82.18 461.71 84.314 C 460.879 86.434 459.84 88.471 458.62 90.412 C 457.442 92.255 456.07 93.973 454.518 95.525 C 452.98 97.091 451.289 98.491 449.46 99.697 C 447.561 100.958 445.538 102.011 443.431 102.87 C 441.311 103.729 439.121 104.367 436.876 104.783 C 434.451 105.226 431.998 105.448 429.545 105.448 C 427.079 105.448 424.626 105.226 422.2 104.769 C 419.969 104.367 417.794 103.715 415.687 102.87 C 413.608 102.011 411.599 100.944 409.728 99.697 C 407.899 98.491 406.208 97.091 404.67 95.525 C 403.131 93.973 401.759 92.255 400.582 90.412 C 399.362 88.471 398.336 86.434 397.505 84.314 C 396.673 82.18 396.05 79.976 395.648 77.717 C 395.218 75.264 394.997 72.77 394.997 70.275 C 394.997 67.781 395.218 65.286 395.648 62.833 C 396.05 60.602 396.673 58.413 397.505 56.292 C 398.336 54.186 399.376 52.163 400.595 50.25 C 401.787 48.435 403.159 46.73 404.684 45.192 C 406.222 43.654 407.926 42.282 409.742 41.09 C 411.613 39.856 413.608 38.803 415.687 37.944 C 417.794 37.085 419.969 36.447 422.2 36.032 C 424.626 35.588 427.079 35.353 429.545 35.353 C 431.998 35.366 434.451 35.588 436.876 36.018 C 439.121 36.433 441.311 37.071 443.431 37.944 C 445.538 38.789 447.561 39.843 449.474 41.09 C 451.275 42.282 452.966 43.654 454.504 45.192 C 456.042 46.73 457.414 48.435 458.606 50.25 C 459.84 52.163 460.879 54.186 461.71 56.292 C 462.528 58.413 463.152 60.602 463.554 62.833 C 463.997 65.286 464.205 67.781 464.205 70.275 L 464.205 70.275 Z  M 439.205 92.282 C 437.833 92.892 436.405 93.336 434.95 93.627 C 433.162 93.973 431.361 94.153 429.545 94.153 C 427.73 94.153 425.928 93.973 424.141 93.627 C 422.699 93.336 421.3 92.892 419.955 92.282 C 418.57 91.673 417.253 90.91 416.006 90.037 C 414.856 89.22 413.775 88.277 412.791 87.238 C 411.834 86.199 410.975 85.062 410.241 83.857 C 409.451 82.568 408.799 81.196 408.273 79.782 C 407.746 78.341 407.344 76.858 407.095 75.334 C 406.804 73.671 406.665 71.966 406.665 70.275 C 406.665 68.626 406.804 66.977 407.081 65.356 C 407.344 63.831 407.746 62.348 408.273 60.893 C 408.799 59.48 409.451 58.108 410.241 56.819 C 410.975 55.613 411.834 54.477 412.791 53.438 C 413.761 52.412 414.828 51.484 415.978 50.666 C 417.225 49.807 418.542 49.072 419.914 48.462 C 421.258 47.88 422.672 47.437 424.113 47.16 C 425.901 46.813 427.716 46.647 429.545 46.647 C 431.361 46.647 433.176 46.813 434.964 47.16 C 436.433 47.437 437.874 47.88 439.246 48.476 C 440.646 49.086 441.976 49.821 443.224 50.68 C 444.374 51.497 445.441 52.426 446.411 53.451 C 447.381 54.477 448.24 55.613 448.975 56.819 C 449.751 58.108 450.416 59.48 450.929 60.893 C 451.455 62.348 451.857 63.831 452.134 65.356 C 452.412 66.977 452.55 68.626 452.55 70.275 C 452.536 71.966 452.398 73.671 452.121 75.334 C 451.857 76.858 451.469 78.341 450.929 79.782 C 450.402 81.196 449.751 82.568 448.975 83.857 C 448.226 85.062 447.367 86.199 446.411 87.238 C 445.441 88.277 444.374 89.206 443.21 90.01 C 441.948 90.897 440.604 91.659 439.205 92.282 L 439.205 92.282 Z " fill-rule="evenodd" fill="rgb(255,255,255)"/><path d=" M 532.642 43.695 L 532.642 0 L 544.311 0 L 544.311 105.482 L 532.642 105.482 L 532.642 97.119 C 532.462 97.285 532.268 97.452 532.088 97.604 C 530.924 98.63 529.691 99.558 528.374 100.376 C 527.057 101.207 525.672 101.955 524.244 102.593 C 522.858 103.217 521.431 103.743 519.962 104.173 C 518.493 104.602 516.996 104.921 515.472 105.129 C 513.92 105.337 512.34 105.448 510.774 105.448 C 508.418 105.448 506.062 105.212 503.748 104.755 C 501.572 104.311 499.438 103.632 497.387 102.759 C 495.363 101.872 493.423 100.791 491.622 99.53 C 489.862 98.297 488.24 96.883 486.771 95.331 C 485.302 93.765 484 92.061 482.891 90.245 C 481.699 88.333 480.701 86.309 479.912 84.217 C 479.108 82.11 478.498 79.935 478.11 77.717 C 477.68 75.348 477.472 72.936 477.472 70.525 C 477.472 68.127 477.68 65.716 478.096 63.346 C 478.484 61.115 479.08 58.912 479.898 56.791 C 480.701 54.671 481.699 52.648 482.863 50.708 C 483.986 48.864 485.289 47.146 486.758 45.552 C 488.213 43.959 489.848 42.531 491.622 41.284 C 493.437 40.023 495.363 38.928 497.387 38.041 C 499.438 37.168 501.572 36.489 503.748 36.045 C 506.062 35.588 508.418 35.353 510.774 35.353 C 512.34 35.353 513.92 35.463 515.472 35.671 C 516.996 35.879 518.493 36.198 519.962 36.641 C 521.431 37.057 522.858 37.584 524.244 38.207 C 525.672 38.845 527.057 39.593 528.374 40.425 C 529.691 41.256 530.938 42.185 532.102 43.21 C 532.282 43.376 532.462 43.529 532.642 43.695 L 532.642 43.695 Z  M 490.693 61.226 C 491.22 59.785 491.857 58.399 492.62 57.068 C 493.326 55.849 494.144 54.699 495.073 53.645 C 495.987 52.592 496.999 51.65 498.107 50.805 C 499.285 49.931 500.533 49.155 501.849 48.518 C 503.124 47.922 504.455 47.465 505.826 47.174 C 507.448 46.813 509.111 46.647 510.774 46.647 C 512.354 46.647 513.934 46.813 515.472 47.146 C 516.858 47.437 518.202 47.894 519.491 48.49 C 520.821 49.1 522.082 49.848 523.26 50.721 C 524.411 51.553 525.464 52.495 526.406 53.548 C 527.376 54.588 528.249 55.738 528.998 56.944 C 529.801 58.274 530.508 59.674 531.076 61.115 C 531.631 62.542 532.046 64.039 532.31 65.55 C 532.615 67.143 532.767 68.779 532.767 70.4 C 532.767 72.035 532.615 73.657 532.31 75.251 C 532.046 76.775 531.631 78.258 531.076 79.685 C 530.508 81.14 529.801 82.526 528.998 83.857 C 528.249 85.076 527.376 86.212 526.406 87.266 C 525.464 88.305 524.411 89.247 523.26 90.079 C 522.082 90.952 520.821 91.7 519.491 92.31 C 518.202 92.92 516.858 93.363 515.472 93.654 C 513.934 93.987 512.354 94.153 510.774 94.153 C 509.097 94.153 507.434 93.987 505.799 93.641 C 504.427 93.349 503.083 92.906 501.808 92.31 C 500.491 91.7 499.23 90.952 498.066 90.079 C 496.957 89.275 495.946 88.347 495.045 87.321 C 494.13 86.282 493.312 85.159 492.606 83.954 C 491.857 82.637 491.22 81.265 490.707 79.824 C 490.194 78.369 489.806 76.872 489.543 75.348 C 489.28 73.754 489.141 72.146 489.141 70.525 C 489.141 68.917 489.28 67.296 489.543 65.702 C 489.806 64.178 490.194 62.681 490.693 61.226 L 490.693 61.226 Z " fill-rule="evenodd" fill="rgb(255,255,255)"/><path d=" M 618.889 86.379 C 618.916 86.42 618.958 86.448 618.986 86.476 C 619.748 87.196 620.247 88.153 620.372 89.192 C 620.372 89.206 620.372 89.22 620.372 89.234 L 620.386 89.344 L 620.386 89.469 L 620.386 89.594 L 620.386 89.663 L 620.386 89.719 C 620.386 89.719 620.386 89.719 620.386 89.732 C 620.386 90.716 620.053 91.673 619.457 92.449 C 617.849 94.5 616.048 96.384 614.066 98.061 C 612.195 99.627 610.144 100.972 607.968 102.08 C 605.765 103.189 603.437 104.034 601.025 104.561 C 598.295 105.157 595.524 105.448 592.738 105.448 C 590.341 105.448 587.957 105.212 585.601 104.741 C 583.439 104.311 581.319 103.646 579.282 102.759 C 577.272 101.872 575.36 100.778 573.572 99.516 C 571.812 98.255 570.191 96.828 568.722 95.248 C 567.253 93.654 565.95 91.908 564.841 90.051 C 563.663 88.069 562.68 85.991 561.903 83.829 C 561.127 81.667 560.559 79.436 560.185 77.177 C 559.783 74.724 559.575 72.257 559.575 69.777 C 559.575 67.365 559.783 64.954 560.213 62.584 C 560.601 60.381 561.197 58.219 562.001 56.14 C 562.804 54.061 563.802 52.066 564.966 50.167 C 566.061 48.379 567.322 46.716 568.736 45.178 C 570.163 43.64 571.743 42.254 573.461 41.021 C 575.18 39.815 577.023 38.776 578.963 37.916 C 580.903 37.071 582.927 36.433 585.005 36.004 C 587.153 35.574 589.343 35.353 591.546 35.353 C 594.069 35.353 596.591 35.616 599.071 36.115 C 601.219 36.544 603.298 37.223 605.266 38.166 C 607.192 39.08 609.022 40.189 610.712 41.464 C 612.334 42.67 613.803 44.042 615.105 45.566 C 616.38 47.077 617.517 48.698 618.487 50.416 C 619.485 52.163 620.288 54.006 620.912 55.918 C 621.522 57.775 621.979 59.674 622.298 61.6 C 622.617 63.513 622.769 65.453 622.769 67.393 L 622.769 74.225 L 571.577 74.225 L 571.577 74.308 C 571.812 75.86 572.159 77.385 572.616 78.895 C 573.045 80.323 573.614 81.722 574.307 83.053 C 574.958 84.314 575.734 85.52 576.621 86.642 C 577.466 87.723 578.423 88.707 579.49 89.58 C 580.654 90.509 581.915 91.326 583.245 92.019 C 584.493 92.657 585.823 93.142 587.209 93.446 C 589.024 93.834 590.881 94.029 592.738 94.029 C 594.623 94.029 596.508 93.821 598.351 93.405 C 599.875 93.072 601.358 92.532 602.744 91.825 C 604.157 91.104 605.488 90.204 606.693 89.164 C 608.052 88.014 609.285 86.711 610.366 85.284 C 611.114 84.286 612.251 83.649 613.498 83.524 L 613.512 83.524 L 613.609 83.51 L 613.761 83.51 L 613.789 83.51 L 613.858 83.51 C 613.886 83.496 613.9 83.496 613.927 83.496 C 615.008 83.496 616.062 83.898 616.865 84.619 L 618.972 86.448 L 618.986 86.476 L 618.889 86.379 L 618.889 86.379 Z  M 572.02 62.944 C 572.172 62.335 572.339 61.739 572.519 61.157 C 572.921 59.979 573.392 58.828 573.974 57.72 C 574.611 56.486 575.346 55.322 576.177 54.2 C 576.967 53.16 577.854 52.19 578.838 51.317 C 579.961 50.347 581.166 49.488 582.441 48.74 C 583.578 48.074 584.811 47.576 586.086 47.271 C 587.818 46.855 589.592 46.647 591.366 46.647 C 592.863 46.647 594.36 46.786 595.829 47.063 C 597.062 47.285 598.268 47.645 599.432 48.13 C 600.582 48.601 601.691 49.211 602.73 49.918 C 603.714 50.569 604.601 51.345 605.405 52.204 C 606.236 53.091 606.984 54.047 607.622 55.073 C 608.343 56.237 608.966 57.456 609.465 58.731 C 609.964 60.006 610.338 61.337 610.601 62.681 L 610.643 62.944 L 572.02 62.944 L 572.02 62.944 Z " fill-rule="evenodd" fill="rgb(255,255,255)"/></g></g></g></svg>
